<svg width="437.33432000000005" height="516.01587" xmlns="http://www.w3.org/2000/svg" xmlns:svg="http://www.w3.org/2000/svg">
 <title>test</title>
 <g>
  <title>Layer 1</title>
  <path d="m260.23993,277.850918l-0.17,-0.35l0.5,-1.77l-0.86,-1.4l0.11,-1.46l0.46,-1.37l-0.25,-0.32l-0.89,0.36l-1.14,-0.35l0,0l-0.97,-1.57l-0.32,-1.21l0,0l0.22,-2.19l1.69,-2.97l1.28,0.15l1.66,-0.5l1.48,-1.13l-0.02,0.57l1.18,0.87l-0.03,0.65l0.5,0.21l-0.09,0.48l0.27,0.32l0.32,0.15l0.3,-0.21l0.94,0.39l0.52,0.71l0.85,-0.17l0.92,-0.73l0.63,-0.01l0.75,0.47l-0.07,0.24l0.84,0.05l-0.02,0.31l0.99,0.5l1.72,-1.4l0.8,-0.08l0,0l-0.32,0.83l0.64,0.81l-0.01,0.51l1.26,-0.26l0.85,-0.55l1.56,0.3l0.22,0.39l0.84,-0.27l0,0l-0.31,0.98l0.52,0.5l-0.58,0.57l0.08,0.47l-0.46,0.24l-1.46,2l-0.03,1.06l-1.28,1.93l-2.75,1.53l-0.43,1.23l0.16,2.32l0,0l-3.41,0.79l-3.43,1.23l-2.03,0.27l-0.26,-0.21l0.8,-1.71l0.49,0.05l0.25,0.57l2.36,-1.02l0.86,-0.53l-0.1,-0.44l0.45,-0.36l0.48,0.15l0.22,-0.19l0.21,-1.14l-0.57,-0.7l-1.69,-0.31l-0.52,0.46l-0.24,0.93l-0.81,-0.57l-2.13,0.25l-1.42,-1.37l0.31,-1.08l-0.44,-0.19l-0.42,0.59l-0.27,2.22l1.02,0.93l0.15,0.88l-1.69,-0.6l-0.77,-0.73z" id="JP-23" fill-opacity="0" fill="#000000" stroke="#D3D3D3"/>
  <path d="m323.48993,155.40889l-0.69,-2.75l-1.39,-1.62l0.51,-0.81l0.74,0.23l0.6,0.89l0.19,-1.14l-0.26,-0.41c0.133333,-0.203333 0.266667,-0.406667 0.4,-0.61l0.19,-1.4l-0.34,-1.41l-1.07,-0.44l-0.45,0.43l-0.54,0.81l-0.61,2.06l0.54,0.42l-0.08,1.26l-0.75,-0.29l-0.89,0.15l-0.19,0.25l0.17,0.85l-2.1,-0.09l-0.96,-1.84l-0.22,-1.3l0.14,-0.73l1.93,1.32l0.67,-0.21l1.48,-1.46l0.87,-1.57l0.8,-2.39l0.6,-3l0.03,-1.67l-1.72,-1.81l0,0l0.51,-0.11l1.13,0.35l0.26,-0.87l0.77,-0.35l0.54,0.32l0.21,0.49l1.48,-0.13l0.81,0.28l1.35,-0.38l0.86,0.18l0.5,-1l1.31,-0.11l0.27,0.84l0.8,0l1.15,1.19l1,-0.84l1.25,0.84l0.79,-0.63l0.76,-0.05l0.72,-0.62l0.71,0.1l0.24,-1.08l1.23,-0.49l-0.16,2.35l2.13,-0.23l0.28,1.84l-0.41,0.27l-0.5,1.22l0.14,1.31l0,0l-0.4,0.57l-0.61,0.22l-0.81,1.11l0.4,0.49l-0.15,1.56l-0.52,0.46l-0.05,2.68l0.62,2.5l-0.56,0.18l-0.49,-0.48l-0.82,0.45l0.07,1.06l1.12,0.66l-0.82,1.47l-0.39,0.14l0.66,1.17l0.13,1.08l-0.51,1.19l-0.27,-0.03l-0.61,0.86l-0.42,0.11l0.21,0.72l-0.43,1.34l-0.78,0.85l0.05,0.81l-0.45,0.12l-0.05,0.65l0.39,0.09l0.6,1.25l-0.15,0.92l0.53,0.75l1.12,0.77l-0.33,1.06l0.85,0.44l-0.6,0.3l-0.47,0.83l0.27,0.22l-0.28,0.97l0.97,0.38l0.14,0.4l-0.79,1.37l0.08,1.15l0,0l-0.71,0.17l-1.64,1.57l-1.76,0.36l-0.27,-0.18l0,0l-0.24,-0.45l-1.52,-0.53l-0.58,-1.8l-1.06,-0.08l-0.35,-0.77l-1.08,0.27l-3.08,-0.94l-0.79,-0.7l-0.71,-0.18l-0.2,-1.17l-0.98,0.24l-0.37,0.46l-2.51,-0.41l0,0l0.68,-1.47l-0.23,-0.93l0.39,-0.78l-0.04,-0.53l0.39,-0.61l0.7,-0.11l0.94,-2.39l0.8,-4.19l0.04,-4.1z" id="JP-05" fill-opacity="0" fill="#000000" stroke="#D3D3D3"/>
  <path d="m344.61993,125.64889l0.92,-0.83l0.58,-1.05l0.57,-1.85l0.23,-2.45l0.59,-1.14l-0.72,-2.06l-0.86,-1.04l-0.79,-0.08l-0.85,1.61l-1.13,0.81l-1.52,-0.42l-0.67,0.65l-1.81,0.34l-0.85,0.87l-0.93,-0.47l0.69,-4.59l0.42,-0.66l0.31,-1.84l1.43,-2.03l-0.22,-0.82l0.3,-0.55l1.72,1.57l1.32,0.11l0.89,0.5l1.57,1.97l1.46,0.85l0.89,0.11l1,-0.37l2.04,-1.67l-1.49,6.85l-0.1,5.09l0.55,5.55l1.37,4.86l1.18,1.09l0.67,-0.39l0.23,0.55l1.91,1.89l0,0l-0.47,0.54l-1.39,0.62l-0.11,0.83l-0.89,0.69l-1.24,-0.77l-0.68,0.09l-1.72,1.1l-0.68,-1.08l-1.96,1.49l-1.52,0.38l-0.74,0.5l-0.04,0.72l-0.46,0.02l-1,0.78l-0.94,-0.01l-0.46,-0.68l0,0l-0.14,-1.31l0.5,-1.22l0.41,-0.27l-0.28,-1.84l-2.13,0.23l0.16,-2.35l-1.23,0.49l-0.24,1.08l-0.71,-0.1l-0.72,0.62l-0.76,0.05l-0.79,0.63l-1.25,-0.84l-1,0.84l-1.15,-1.19l-0.8,0l-0.27,-0.84l-1.31,0.11l-0.5,1l-0.86,-0.18l-1.35,0.38l-0.81,-0.28l-1.48,0.13l-0.21,-0.49l-0.54,-0.32l-0.77,0.35l-0.26,0.87l-1.13,-0.35l-0.51,0.11l0,0l0.26,-1.78l-0.19,-1.44l-0.45,-0.86l-0.96,0.05l-0.15,-0.82l1.78,-1.42l1.02,-1.8l0.65,-0.44l0.61,-0.25l1.23,0.69l1.43,-1.07l0.81,-0.1l0.42,-0.61l1.02,-3.61l0.07,-3.8l-0.69,-0.75l-0.7,-0.08l0.17,-0.39l0.88,0.23l0.38,-0.43l0.4,-2.95l1.09,0.69l0.67,0.99l0.64,0.36l0.67,-0.19l1,-1.01l1.09,0.38l0.65,0.72l-0.11,2.27l0.39,2.52l0.73,3.28l0.93,1.19l1.33,-0.11l1.19,-1.28l0.22,-0.56l-0.22,-1.24l0.33,-1.45l1.49,0.54l0.68,0.96l-0.18,0.55l0.73,-0.01l0.92,0.45l0.53,0.88l0.77,0.21z" id="JP-02" fill-opacity="0" fill="#000000" stroke="#D3D3D3"/>
  <path d="m319.14993,263.11889l0.14,-0.21l0.96,0.42l0.39,-0.47l-0.3,-0.72l0.09,-0.58l1.35,-0.38l-0.12,-0.51l0.28,-0.13l0.24,0.38l1.51,-2.16l0.57,0.45l0.23,-0.35l-0.54,-1.29l-0.76,-0.83l-1.21,-1.19l-0.69,0.29l-0.35,-0.76l0,0l-1.08,-2.26l0,0l0.34,-0.26l0.22,-1.33l-1.68,-3.22l-0.05,-1.04l-0.71,-1.41l0,0l0.42,0.03l0.33,0.84l1.63,2.01l0.72,0.24l0.2,0.71l1.04,0.7l2.46,0.86l0.58,0.72l1.02,-0.41l0.86,0.11l0.59,-0.4l0.8,0.23l0.86,-0.82l2.01,-0.52l1.08,0.52l0.91,-0.04l1.13,0.97l1.23,0.26l1.11,1.53l2.5,1.54l0,0l-0.11,0.65l-0.76,-0.51l-1.5,0.5l-0.8,-0.22l-0.75,0.19l-2.72,2.07l-1.39,1.57l-1.12,2.16l-0.29,2.32l0.47,1.23l-0.61,2.85l-0.67,0.14l-0.47,1.02l-0.28,0.1l-2.15,0.62l-0.23,-0.44l-1.28,0.19l-0.81,1.1l-1.97,1.36l-0.51,1.21l0.1,0.58l-0.45,0.61l-1.04,0.43l-1.17,-0.21l-0.19,-0.72l-1.31,-0.67l0.03,-0.29l0.8,0.11l1.25,-0.56l-0.78,-1.66l0.46,-0.5l-0.36,-0.36l0.29,-0.7l-0.41,-0.57l0.01,-0.83l0.92,-0.71l0.08,-0.52l-0.44,-0.75l0.06,-0.39l-0.75,-0.46l0.54,-1.46z" id="JP-12" fill-opacity="0" fill="#000000" stroke="#D3D3D3"/>
  <path d="m174.06993,312.76889l0.23,-0.43l0.35,-0.26l0.35,0.04l0.02,-0.2l-0.29,-0.13l-0.38,-0.16l-0.47,0.16l-0.28,0.23l-0.44,-0.25l-0.2,0.38l-0.4,-0.13l-0.14,-0.23l-0.46,0l0.13,-0.45l0.17,-0.13l0.14,-0.1l0.31,-0.12l-0.03,-0.17l-0.04,-0.25l-0.3,0.03l-0.22,-0.37l0.35,-0.29l-0.07,-0.36l-0.27,-0.07l0.35,-0.32l0.16,-0.04l0.22,-0.27l0.09,-0.46l-0.23,0.13l-0.4,-0.05l0.17,-0.41l-0.51,0.1l-0.33,-0.36l-0.23,0.06l-0.35,0.29l-0.86,0.6l-0.52,0.14l-0.33,0.37l-1.1,0.33l-0.57,0.53l-0.16,0.31l-0.31,0.28l-0.51,0.06l-0.03,-0.24l0.35,-0.22l0.01,-0.17l-0.51,0.02l-0.85,0.71l-0.51,0.31l-0.25,0.01l2.15,-1.81l0.51,-0.3l0.66,-0.36l0.57,0.08l0.31,-0.33l0.31,-0.14l0.46,-0.04l0.24,-0.14l0.1,-0.18l1.16,-0.52l0.86,-0.64l0.75,-0.4l0.21,-0.5l0.83,-0.99l0.63,-0.46l1.55,-0.56l1.22,-0.91l0.21,-0.24l0.37,-0.98l0.45,-0.4l-0.23,-0.72l-0.01,-0.99l0.2,-1.04l0.24,-0.66l0.43,0.17l0.43,-0.29l0.34,-1.22l0.07,-0.62l1.77,-1.67l1.11,-0.17l-0.06,-0.45l0.26,-0.17l-0.15,-0.56l0.36,-0.6l0.75,0.87l0.98,1.41l0.72,1.48l0.38,0.6l0.13,0.43l0.5,0.36l0.95,-0.32l1.38,-0.34l0.37,-0.1l-0.12,-0.46l1.2,-0.2l0.24,-0.26l0.38,0.05l0.37,0.33l0.7,-0.3l0.68,0.1l0.48,0.1l0.73,0.33l0.5,-0.07l0.69,-0.5l0.2,-0.34l0.14,-0.44l0.16,-0.08l0.4,-0.27l0,0l0.33,0.27l0.95,0.13l0.61,0.34l0,0l-0.29,0.68l0.27,0.49l0,1.04l-0.22,0.61l-0.34,0.29l0,0l-0.41,0.01l-0.65,-0.01l-0.47,0.33l-0.51,-0.34l-0.21,0.04l-0.56,0.77l-0.21,0.27l-0.2,0.16l-2.07,0.07l-0.8,-0.13l-1.47,0.02l-0.2,0.17l-0.22,0.73l-0.18,0.11l-0.52,0.19l-0.34,-0.34l-0.2,0.02l-0.26,0.69l-0.39,0.79l-0.4,0.4l-0.35,0.5l-0.06,0.55l-0.22,0.28l-0.61,0.1l-0.18,0.65l-0.25,0.73l-0.19,0.46l0.29,0.29l0.04,0.52l-0.36,0.27l-0.57,0.88l-0.01,0.27l-1.2,0.34l-0.21,-0.13l-0.66,0.08l-1.3,-0.21l-0.41,0.11l-0.32,0.3l0.35,0.32l0.15,0.94l0.15,0.2l0.2,0l0.23,0.72l0.45,0.14l0.27,0.36l0.04,0.57l-0.08,0.22l-0.8,0.46l-1.21,0.42l-0.31,0.52l-0.18,1.14l-0.43,0.03l-0.17,0.15l-0.14,0.47l-0.71,0.9l-0.19,0.07l-0.95,-0.92l-0.11,-0.27l-0.2,0.07l-0.14,0.29l0.29,0.62l-0.03,0.26l0.47,0.51l0.21,0.05l0.09,0.3l-0.2,0.92l0.3,0.31l0.21,0.94l-0.01,1.33l-0.41,0.1l-0.05,0.38l0,0l-0.32,-0.12l-0.94,0.35l-0.14,-0.27l-0.25,-0.34l-0.09,-0.18l-0.46,0.16l-0.19,0.09l-0.26,0.06l-0.02,0.29l0.02,0.13l-0.19,0.26l-0.35,-0.03l-0.27,0.01l-0.25,-0.04l0.08,-0.37l-0.32,-0.38l0.1,-0.12l0.36,-0.04l0.35,-0.26l-0.63,-0.34l0.28,-0.23l0.24,0.14l0.15,0.04l0.14,-0.1l-0.21,-0.39l0.1,-0.26l-0.3,-0.14l-0.12,-0.04l-0.01,-0.83l-0.28,-0.04l-0.35,0.33l-0.42,-0.24l-0.38,0.17l-0.13,0.08l-0.09,0.21l-0.05,0.29l-0.36,-0.18l0.33,-0.4l0.02,-0.38l0.15,-0.35l0.22,-0.05l0.2,0.11l0.14,0.34l0.33,-0.06l0.57,-0.22l0.13,-0.27l-0.3,-0.12l0.21,-0.39l0.38,-0.6l-0.02,-0.33l-0.39,-0.09l-0.15,0.01l-0.22,0.08l-0.15,0.13l-0.22,-0.14l0.05,-0.25l-0.36,-0.17l0.15,-0.33l0.29,-0.35l-0.52,-0.56l0.51,0.2l0.69,0.34l0.29,0.33l0.35,0.02l-0.08,-0.37l-0.2,-0.41l0.31,-0.27l0.56,0.04l0.23,-0.03l0.09,-0.16l-0.14,-0.34l-0.28,0.04l-0.38,-0.34l0.39,-0.21l0.04,-0.31l-0.8,0.05l-0.49,-0.19z" id="JP-38" fill-opacity="0" fill="#000000" stroke="#D3D3D3"/>
  <path d="m238.25993,258.18889l1.16,0.72l0.07,0.38l0.31,-0.04l0.42,-0.26l-0.65,-0.81l0.2,-0.13l0.54,0.36l0.37,-0.65l-0.58,-0.45l-0.25,-0.84l0.59,0.15l0.43,0.69l0.76,-0.4l0.15,0.35l1.22,-0.36l0.23,-0.43l-0.25,-0.32l0.06,-0.95l-0.43,-0.68l1.24,-0.99l0.39,0.6l-0.23,1.43l0.36,0.54l0.6,-0.11l0.48,-1.52l0.02,-1.28l-0.57,-1.13l-1.52,-1.52l0.08,-1.1l-0.79,-1.19l1.06,-1.27l0.35,-1.49l2.1,-3.09l-0.24,-0.66l0.85,0l1.53,-1.09l0,0l1.68,1.59l0.25,1.25l0.41,0.38l0.9,-0.13l0.65,0.76l0.47,0.05l1.75,-0.42l1.86,1.46l0.24,0.62l1.89,-0.48l0,0l0.21,0.49l-0.49,0.37l-0.25,1.39l0.5,0.37l-0.05,0.53l0.79,0.28l-0.13,0.49l0.64,0.53l0.3,1.22l-0.63,0.46l-0.17,0.78l-1.34,-0.02l-1.13,0.49l-0.42,-0.52l-0.46,0.45l-0.52,-0.17l-0.49,0.44l-0.82,-0.21l-0.56,0.77l-0.3,-0.51l-1.06,0.02l-1.17,-0.42l-0.9,0.48l-0.01,0.97l-0.99,1.64l0,0l-1.81,-0.94l-0.67,0.13l-0.31,0.67l0.83,1.76l-0.13,0.75l-1.1,-0.32l-0.35,1.07l-1.29,0.13l-0.45,0.87l-0.46,0.1l-0.77,-0.77l-1.04,2.77l-0.57,0.28l-0.35,-0.4l-0.66,-0.01l-0.05,0.5l-0.37,0.1l-0.45,0.74l0,0l-1.37,0.26l-1.51,-0.59l-1.73,-0.19l-0.13,-0.87l-1.31,-1.21l0.29,-1l-0.52,-0.42l0.41,-0.9l0,0l0.88,0.17l-0.21,1.09l0.18,0.25l2.58,0.39l1.78,-0.38l0.27,-0.88l-0.65,0.27l-0.03,-0.5l-0.57,-0.11l0.52,-0.59l0.41,-0.08z" id="JP-18" fill-opacity="0" fill="#000000" stroke="#D3D3D3"/>
  <path d="m133.13993,303.07889l1.24,-1.35l0.14,-0.6l-0.12,-0.36l-0.33,0.01l-0.06,-0.68l0.56,-0.05l0.25,-0.81l0.85,-0.52l-0.08,-0.39l0.78,-0.03l0.25,0.3l1.04,-0.11l0.68,-0.4l0.71,-0.94l1.1,0.45l0.45,-0.34l1.79,0.39l0.43,0.58l0.74,-0.28l0.32,-0.77l1.16,-0.76l0.4,0.31l-0.72,1.35l0.17,0.96l-0.79,0.7l0.22,0.46l0.66,-0.13l0.55,2.53l1.4,2.1l0.56,-0.28l1.08,0.76l0,0l-0.15,0.37l0.3,0.8l-0.39,0.52l0.13,0.46l-1.91,0.11l-0.97,-0.27l-0.93,0.23l-1.61,1.38l-0.3,1.65l-0.49,0.13l-0.47,0.69l0.3,0.16l0.29,0.95l-0.14,0.64l-0.52,0.26l-0.12,0.38l0.36,0.19l-0.03,0.62l0.84,0.73l-0.48,1.38l-0.35,0.25l0,0l-1.53,-0.52l-0.67,-0.61l-0.81,0.04l-0.16,-0.4l-0.53,1.44l-1.5,-0.17l-1.62,1.49l0.18,1.07l-2.14,-0.08l0,0l0.48,-1.1l-0.32,-0.8l-0.74,-0.78l0.03,-0.41l-0.37,-0.19l0,0l0.17,-1.23l0.59,-1.04l1.85,-1.42l0.51,-0.86l0.51,0.03l0.02,-2.25l-0.41,-0.21l-0.74,0.25l-0.99,0.95l-0.62,-0.71l-0.77,-0.17l-1.7,-1.07l-0.48,0.22l-0.86,-0.24l-0.69,0.32l-2.63,-0.08l0,0l0.15,-0.68l1.61,-0.32l0.54,-0.64l0.19,-0.55l-0.42,0.3l-0.15,-0.45l-0.27,-0.16l-0.45,0.24l-0.22,-0.4l1.19,-0.35l0.29,-0.38l-0.12,-0.38l0.85,-0.3l0.15,-0.61l0.59,0.4l-0.25,0.37l0.18,0.42l0.82,0.14l0.11,0.7l0.48,-0.08l0.16,-0.34l0.66,0.07l1.04,-0.49l0.12,-0.84l0.57,-0.23l-0.08,-0.6l-0.59,-0.04z" id="JP-40" fill-opacity="0" fill="#000000" stroke="#D3D3D3"/>
  <path d="m341.40993,223.74889l-0.62,0.81l-2.49,1.19l-0.39,0.66l0.04,0.48l0,0l-3.43,-1.04l-0.57,-1.03l-0.34,0.46l0.46,1.3l-1.12,0.49l-1.46,1.4l-0.43,-0.57l-1.14,-0.42l-0.33,-1.16l-0.82,-0.25l-0.76,-1.02l-0.55,-0.03l0,0l-0.33,-0.33l0.16,-1.86l-0.85,0.05l-0.23,-0.94l-1.02,-0.98l-2.39,-1l-2.41,-0.28l-1.36,0.59l-0.18,0.91l-2.79,0.87l-0.26,0.42l-0.79,0.19l-0.23,0.44l-0.63,0.09l-0.92,0.74l-1.36,0.24l-0.71,1.02l-0.94,0.43l0,0l-2.3,-0.72l-0.52,0.2l-0.01,-0.37l0,0l0.24,-0.42l-0.11,-1.34l0.22,-0.78l-0.42,-1.39l0.35,-1.28l-0.47,-0.93l-0.68,-0.16l-0.59,-0.8l0.97,-1.4l0.2,-1.16l0.14,-1.19l-0.67,-0.56l0.57,-0.92l2.15,-0.24l0.55,-0.29l0.68,0.24l0.32,-1.19l0.41,-0.16l0.47,-0.04l0.39,0.32l0.37,-0.24l1.26,0.22l0.48,-0.23l-0.38,-0.82l0.09,-0.81l-0.42,-1.03l0.03,-0.73l1.53,-1.04l-0.13,-0.24l0.71,-1.3l1.58,-1.71l0,0l0.79,-0.18l0.63,0.68l0.94,-0.58l0.61,0.39l0.63,-0.07l0.33,-0.35l0.97,1.68l1.23,-0.46l1.47,1.12l0.74,-0.56l1.3,0.26l1.33,-1.61l-0.55,-0.41l-0.04,-2.01l0.3,-1.71l0,0l1.39,0.66l1.13,-0.57l1.14,0.69l0.37,1.09l2.65,-0.27l0.82,0.28l0.56,0.46l-0.18,1.14l0.28,0.75l0.63,0.5l1.21,0.27l0.15,-0.16l-0.47,-0.39l1.58,0.06l0.13,-0.22l-0.03,-2.17l0.72,-0.27l0.69,0.18l0,0l0.38,1.28l0.71,0.43l0.05,1.28l0.44,0.75l0.55,6.03l0,3.31l-1.4,9.34zm-3.43,3.16l0,0l0.03,0.01l-0.03,-0.01z" id="JP-07" fill-opacity="0" fill="#000000" stroke="#D3D3D3"/>
  <path d="m251.72993,266.75889l-0.72,-0.69l0.32,-0.21l0.02,-0.93l0.32,-0.52l0.04,-1.34l0.55,-0.44l-0.53,-0.85l0.09,-1l-0.63,-0.64l0.24,-0.89l-0.55,-0.71l-0.31,0.5l-0.78,-0.29l0.12,-1.6l-0.66,-0.07l-0.26,-1.07l0,0l0.98,-1.64l0.01,-0.97l0.9,-0.48l1.17,0.42l1.06,-0.01l0.3,0.51l0.56,-0.77l0.82,0.22l0.48,-0.44l0.52,0.17l0.46,-0.44l0.41,0.52l1.13,-0.49l1.35,0.02l0.17,-0.78l0.62,-0.46l-0.3,-1.22l-0.64,-0.52l0.12,-0.49l-0.79,-0.28l0.05,-0.53l-0.49,-0.37l0.24,-1.39l0.5,-0.37l-0.21,-0.49l0,0l0.5,-1.09l-0.23,-0.74l0.61,-0.23l0.94,-1.67l-0.04,-0.39l-0.76,-0.43l-0.25,-0.58l0,0l0.58,-0.08l0.29,-1.06l0.77,-0.56l0.25,0.59l0.35,-0.36l0.92,0.51l0.34,0.77l-0.26,0.73l0.34,0.08l1.39,-1.22l0.25,-1.15l2.08,-2.02l0.55,-0.02l0.25,0.44l1.46,-0.69l0.59,0.05l0.04,0.88l0.21,0.04l1.35,-0.8l0.28,0.78l1.13,0.35l0.71,-0.34l0.84,0.82l0.94,0.07l0,0l0.13,0.51l1.03,0.66l0.09,0.53l-0.09,0.78l-1.39,1.81l0.38,0.55l-0.05,0.52l-0.75,0.71l-0.01,0.81l0.46,0.5l0.72,0.25l-0.39,1.57l-1,0.76l-0.37,0.92l-0.44,0.1l-0.52,1.06l-0.42,0.07l-0.33,-0.33l-1.15,0.35l-0.35,1.06l-0.59,0.25l-0.11,0.54l0.29,0.39l1.04,0.01l0.05,0.51l1.23,0.37l0.8,1.79l0.78,0.7l-0.43,1.28l0.39,0.45l-0.07,1.1l0.31,0.55l1.07,-0.32l0.57,0.54l0,0.91l-0.65,0.7l0.71,0.98l-0.87,0.29l0.26,1.27l-0.84,0.65l0.01,0.53l0,0l-0.8,0.08l-1.72,1.4l-0.99,-0.49l0.02,-0.32l-0.84,-0.04l0.07,-0.24l-0.75,-0.48l-0.63,0.02l-0.92,0.73l-0.85,0.17l-0.52,-0.71l-0.94,-0.39l-0.3,0.21l-0.32,-0.15l-0.27,-0.32l0.09,-0.49l-0.49,-0.2l0.03,-0.65l-1.18,-0.87l0.02,-0.56l-1.49,1.12l-1.66,0.5l-1.27,-0.15l-1.69,2.98l-0.22,2.19l0,0l-1.08,-0.12l-1.69,-2.5l-2.21,0.95z" id="JP-21" fill="#000000" fill-opacity="0" stroke="#D3D3D3"/>
  <path d="m315.66993,242.52889l-0.31,0.58l-0.49,0.18l-0.52,-0.48l-2.54,0.48l-1.81,-1.34l-0.86,0.21l-0.97,-0.29l-0.6,0.15l-1.69,-0.86l-0.7,-0.05l-1.23,1.97l-0.02,0.93l-0.42,0.76l-1.53,0.07l-0.46,0.78l-1.52,0.4l-0.92,1.01l-1.23,0.02l-0.75,1.01l0,0l-0.36,0.09l-0.36,-0.52l-0.61,-0.19l-0.38,-1.77l0.33,-0.35l-0.28,-0.67l-0.65,-0.08l-0.44,-0.76l0.16,-0.17l0.46,0.33l0.45,-0.48l0.03,-0.81l-0.42,-0.44l-0.23,-1.11l1.03,-0.68l0.07,-1.48l-0.29,-1.15l-0.83,-0.25l-0.7,0.1l-0.44,0.4l-0.88,-0.25l-0.21,0.31l-0.43,-0.07l-1.25,-0.74l-0.06,-1.3l0.6,-1.66l-0.02,-0.99l0.96,-1.18l0.96,-0.16l0.01,-1.09l1.79,-0.36l1.55,-0.83l0,0l0.25,0.17l0.36,-0.63l1.2,0.44l0.79,-0.67l-0.1,-1l0.64,0.03l1.49,-0.62l-0.25,-0.44l0.29,-0.95l0.85,0.11l0.09,-0.26l-0.27,-1.93l1.64,-0.28l0.82,-0.73l0.12,-0.95l1.54,1.55l0.11,0.76l0.92,0.07l0.23,0.34l0,0l0.01,0.37l0.52,-0.2l2.3,0.71l0,0l-0.58,1.54l1.02,0.44l-1.02,1.41l0.28,1.17l-0.59,0.89l-0.18,1.37l1.47,0.74l1.23,-0.07l0.34,0.68l-0.82,0.65l-0.4,1.2l0.33,0.76l-1.19,1.55l-0.18,0.96l1.05,0.78l-0.04,0.58l1.11,0.97l1.01,-0.29l0.71,0.43l1.11,-0.18l0.38,0.24l-0.09,0.28l0.51,0.79z" id="JP-10" fill-opacity="0" fill="#000000" stroke="#D3D3D3"/>
  <path d="m213.21993,277.54889l-1.09,0.9l-1.21,-0.22l0,0l-0.54,-1.37l-1.08,-0.96l-0.18,-0.47l0.7,-1.31l-0.68,-0.85l0.35,-0.32l0.15,-0.91l-0.2,-0.59l0.92,-0.54l0.06,-0.93l0.59,-0.25l0.24,-1.1l0.24,-0.26l0.67,0.07l0.08,-0.78l-0.63,-0.66l0.44,-0.8l0,0l0.58,0.26l1.64,-1.15l-0.26,-1.16l0.15,-0.43l-0.73,-0.96l0.09,-1.08l-0.73,-0.34l-0.49,-1.88l0.12,-1.02l-0.38,-0.77l-0.69,-0.52l0,0l2.13,-0.66l1.22,-0.74l1.2,0.31l0.42,0.47l0.82,-0.67l1.38,0.2l1.28,-0.29l0.45,0.33l0.98,-0.06l0,0l0.02,2.02l0.86,0.8l0.21,0.61l0.72,0.18l1.33,-0.66l0.32,0.54l0,2.63l-0.91,0.52l-1.14,-0.55l-0.37,1l0.02,1.27l1.49,0.61l1.32,1.13l0.76,-0.46l1.02,0.02l0.02,0.78l0.86,0.82l-0.25,0.55l0.55,0.24l0.43,-0.36l0.81,0.04l0.22,0.06l0.04,0.73l0.85,-0.18l0.97,0.49l0.29,1.26l-0.38,0.21l-0.17,0.54l0,0l-0.43,-0.05l-0.29,0.31l0.4,0.24l0.08,0.97l-0.24,0.36l1.4,0.81l0.96,0.14l-0.91,0.51l0.43,0.25l-0.47,2.04l0.74,1.24l0.15,1.43l-0.54,1.21l0,0l-0.44,-0.33l0.14,-0.47l-0.25,-0.52l-0.92,0.32l-0.42,-0.6l-0.97,-0.13l-1.98,0.94l-0.1,0.68l-2.58,0.64l-4.27,-1.72l-1.67,-1.65l-5.72,0.05zm9.4,11.08l0.22,0.77l-2.06,0.84l-0.98,0.82l-1.34,0.19l-0.01,-0.45l-0.59,-0.31l0.06,-0.5l-0.43,-0.16l-0.54,-1.01l0.67,-0.96l0.38,0.24l0.47,-0.24l1.33,-2.82l0.4,-0.46l0.41,0.01l0.95,-1.5l0.95,-0.43l0.77,-1.12l0.55,-0.29l0.44,0.83l-0.6,0.72l-0.15,0.77l-1.78,2.33l-0.01,1.54l0.89,1.19z" id="JP-28" fill-opacity="0" fill="#000000" stroke="#D3D3D3"/>
  <path d="m330.00993,71.56889l2.71,-2.13l0.04,-0.59l-1.96,-3.17l-1.38,-0.99l-0.7,-1.16l0.68,-2.54l-0.27,-0.48l1.64,0.11l0.6,-0.42l0.21,-0.54l0.53,-0.21l2.75,2.66l1.93,0.87l1.13,1.28l2.48,-0.47l0.17,-0.42l1.02,-0.32l0.72,0.02l-0.14,1.17l3.04,1.39l2.2,-1.22l1.97,-2.15l0.99,-1.6l0.1,-2.35l-1.38,-2.76l0.54,-1.94l-0.66,-1.44l-0.45,-2.27l1.02,-2.1l1.47,-0.89l0.76,-0.05l2.03,-1.32l0.93,-1.89l0.41,-1.95l-0.35,-7.86l0.5,-0.32l1.64,-3.44l0.21,-2.86l0.38,-0.79l0.13,-1.6l-0.3,-3.27l-0.77,-3.84l-3.04,-7.32l-0.31,-1.16l0.07,-0.99l0.86,-1.27l0.79,-1.95l-0.41,-1.4l0.15,-1.28l0.75,0.77l0.13,0.52l0.39,0.16l1.76,-0.28l1.35,-0.94l0.55,-1.99l0.87,-0.31l0.47,0.33l0.56,1.29l0.59,0.34l0.63,1.47l2.32,1.7l2.21,3.12l4.95,5.56l3.91,7.23l2.58,2.55l2.44,3.1l5.58,4.4l1.57,0.89l0.33,0.95l1.26,0.96l3.7,1.94l3.24,1.28l5.88,1.69l2.79,0.53l0.44,-0.31l0.29,0.77l-0.06,1.28l0.87,1.55l0.58,0.48l3.21,1.01l3.41,0.21l2.57,-0.32l2.28,-1.99l1.54,-1.92l2.18,-2.04l1.83,-1.26l0.66,-1.45l1.1,-1.16l0.78,-1.38l0.46,0.03l0.45,2.23l-1.21,2.49l-0.91,0.92l-0.6,2.4l-1.73,2.13l-0.94,2.12l0.1,0.83l-0.77,2.05l0.22,1.06l1.35,2.58l1.49,1.97l1.52,5.23l1.49,1.96l-1.16,-0.53l-0.19,-0.53l-1.14,-0.22l-0.24,0.37l0.21,1.26l0.86,-0.67l0.47,0.4l-0.29,0.55l0.37,0.39l0.4,-0.28l2.55,0.62l2.09,-1.7l0.32,-0.6l1.11,-0.71l0.24,-0.5l3.28,0.2l-0.19,0.5l-1.17,0.91l-1.73,0.31l-1.87,1.03l-0.8,2.93l-0.77,-0.36l-1.24,-0.05l-2.71,0.51l-1.51,0.9l-1.26,-0.21l-0.62,0.6l-0.14,1.15l-1.6,2.15l-1.02,0.49l-1.9,-0.1l-0.9,-0.79l0.03,-0.53l0.33,-0.31l-0.55,-0.37l-0.73,0.1l-1.19,1.73l-0.02,0.41l1.15,1.13l-2.01,-0.12l-1.15,-0.35l-3.58,-0.02l-0.69,-0.15l-1.58,-1.27l-3.06,0.54l-2.43,1.18l-3.4,2.53l-5.27,5.27l-4.08,5.8l-1.53,3.31l-0.28,1.67l0.55,1.44l-0.82,3.88l-0.91,1.53l0,1.61l-3.7,-3.72l-4.85,-2.02l-8.09,-4.45l-2.38,-1.67l-1.84,-2.05l-3.21,-0.94l-2.21,-2.05l-1.82,-1.2l-1.83,-0.53l-2.38,-0.04l-3.17,1.04l-2.08,1.29l-2.68,2.28l-1.59,0.89l-2.12,2.45l-0.34,0.75l-1.07,-0.4l-0.33,-0.55l0.38,-0.29l0.59,0.64l0.12,-0.81l-1.35,-0.41l-0.87,-2.37l-0.79,-0.4l-1.07,-1.12l-0.12,-0.58l-1.27,-1.23l-1.24,-0.09l-1.25,0.53l-0.97,-0.59l-1.21,0.03l-1.68,1.81l-1.44,2.75l-0.71,2.55l0.28,1.94l2.32,1.2l2.74,2.35l0.75,0.14l1.37,-0.53l2.04,0.31l1.23,2.21l1.63,1.22l1.08,1.88l3.15,1.36l0.55,0.89l0.79,0.59l-0.61,0.61l-0.95,0.01l-1.1,1.3l-1.66,0.66l-0.86,-0.79l-2.78,-0.91l-0.93,0.16l-0.28,0.62l-0.41,0.1l-0.18,-0.61l0.68,-0.45l-0.2,-0.67l-0.59,-0.37l-0.86,0.08l-0.41,0.33l-0.43,1.68l-1.44,1.06l-1.29,0.1l-0.35,0.33l-0.31,3.94l-0.4,0.48l-0.94,0.03l-1.96,0.87l-0.9,1.89l-0.39,0.32l-1.02,-0.8l-1.14,0.22l-0.9,-0.71l-1.08,-2.72l-0.09,-0.86l0.41,-1.77l1.35,-3.03l0,-1.05l0.77,0.08l0.29,-0.59l0.31,-2.7l-0.4,-1.98l-1.9,-2.94l-0.67,-0.36l-1.3,-0.12l-0.51,-1.33l-0.85,-0.88l-1.14,-0.41l-0.39,-0.73l-0.19,-1.39l0.31,-1.12l0.94,-1.03l0.33,-0.95l0.03,-2.65l-0.49,-2.23l0.92,-1.45l1.12,-0.62l2.28,-0.06l0.61,-0.91l1.39,-0.73l0.85,-1.92l0.82,0.57l0.56,0.97l0.89,-0.23l0.09,-1.39l0.82,-0.84l0.85,-1.71zm14.72,-61.43l-0.09,-1.23l1.28,-1.25l2.07,1.21l0.51,1.81l-1.81,1.49l-1.37,-1.07l-0.59,-0.96zm-31.88,81.17l-0.29,2.22l-0.39,0.63l-0.65,0.23l-0.02,0.36l-0.61,-0.54l0.06,-1.71l-0.42,-1.11l0.74,-1.09l1.91,-0.38l0.46,-0.52l0.03,0.64l-0.82,1.27zm30.35,-86.78l-0.26,2.59l-0.39,0.13l-0.88,-2.97l0.22,-1.31l-0.61,-0.34l0.09,-0.73l0.65,0.85l0.66,-0.15l-0.02,-0.59l0.34,0.27l0.35,0.78l-0.15,1.47z" id="JP-01" fill-opacity="0" fill="#000000" stroke="#D3D3D3"/>
  <path d="m177.17993,290.93889l-0.78,-0.7l-1.45,1.75l0.31,0.9l0.76,-0.2l0.32,0.31l-0.15,0.21l-0.7,0.53l-0.28,-0.28l-1.54,0.26l-0.18,-0.59l1.14,-0.63l-0.25,-0.46l0.14,-0.63l0.53,-0.44l0.08,-0.97l-0.71,-1.73l0.15,-0.97l-1.31,-0.65l-2.28,1.04l-0.02,0.37l-1.73,1.61l-0.21,0.51l0.27,0.15l0,0l-0.33,0.19l-1.28,-0.31l-0.5,-1.46l0.08,-0.63l-0.92,-0.78l-0.24,-1.36l0.17,-0.81l-0.3,-0.68l0,0l-0.49,-0.63l0.3,-0.64l0.6,-0.18l0.63,-0.68l0.21,-1.78l0.7,-1.03l-0.55,-0.34l0.3,-0.48l1.45,-0.86l0.31,-1.14l0.79,0.11l0.4,0.48l0.21,-0.44l1.24,-0.13l0.52,0.42l0.51,-0.43l-0.07,-0.25l0.41,-0.14l0.25,0.41l1.63,0.13l1.47,-1.06l1.76,-0.14l-0.01,-0.87l-0.69,-0.21l-0.38,-0.47l0.85,-1l1.19,-0.25l2.4,-3.33l0.4,-0.07l1.15,0.7l0.79,-0.62l0.98,0.79l1.42,-0.42l0.58,0.22l0,0l0,0.26l2.1,-0.32l0.42,0.5l0,0l1.01,1.22l-0.46,1.21l-0.01,1.6l1.6,2l-0.29,1.12l0.41,1.9l-0.01,1.38l1.21,1.65l0.12,1.74l0,0l-0.45,1.24l-0.88,0.09l-0.04,0.9l-0.33,0.31l-2.4,-0.51l-0.04,-0.21l0.57,-0.19l-0.04,-0.6l-0.56,-0.21l0.07,0.43l-0.66,0.3l-1.65,0.67l-0.74,-0.09l-0.23,0.98l-1.26,0.39l-1.28,-0.21l-1.15,0.26l-0.35,0.57l-0.55,0.26l-0.25,-0.56l-0.71,0.08l-0.26,0.86l-0.45,-0.15l-0.04,0.98l-1.16,0.08l-1.31,0.85z" id="JP-34" fill-opacity="0" fill="#000000" stroke="#D3D3D3"/>
  <path d="m333.51993,240.30889l-0.1,2.12l0.89,3.27l2.68,5.5l1.63,2.49l0.82,0.47l0.04,0.45l0,0l-2.5,-1.54l-1.11,-1.53l-1.23,-0.26l-1.13,-0.97l-0.91,0.04l-1.08,-0.52l-2.01,0.52l-0.86,0.82l-0.8,-0.23l-0.59,0.4l-0.86,-0.11l-1.02,0.41l-0.58,-0.72l-2.46,-0.86l-1.04,-0.7l-0.2,-0.71l-0.72,-0.24l-1.63,-2.01l-0.33,-0.84l-0.42,-0.03l0,0l-0.39,0.35l-0.39,-0.1l-0.87,-1.96l0.17,-0.89l0,0l0.73,-0.06l1.65,-0.87l0.55,-1.69l1.13,0.28l0.12,-0.88l1,-0.47l0.13,-0.45l1.56,-0.08l0.26,-0.13l0.05,-0.52l0.67,0.24l0.41,-0.46l0.44,-0.02l0.28,0.39l0.67,-0.21l0.21,-1.17l0.92,-1.85l-0.02,-1.81l-0.57,-1.95l0.28,-0.38l0.95,-0.21l0.1,-0.31l-0.63,-1l0.22,-1.3l-0.28,-0.99l0.09,-1.99l0,0l0.55,0.03l0.76,1.02l0.82,0.25l0.33,1.16l1.14,0.42l0.43,0.57l1.46,-1.4l1.12,-0.49l-0.46,-1.3l0.34,-0.46l0.57,1.03l3.43,1.04l0,0l0.04,0.02l0,0l0.03,0.01l0,0l0.18,0.64l-0.63,0.17l-0.49,0.95l-1.18,4l-0.7,1.17l-0.78,2.27l0.16,2.88l-1.04,1.29z" id="JP-08" fill-opacity="0" fill="#000000" stroke="#D3D3D3"/>
  <path d="m257.72993,221.14889l-0.06,-1.29l-0.32,-0.14l-0.36,0.34l-0.3,-0.28l0.61,-2.33l0.4,-0.35l0,-1.67l0.35,-0.38l1.44,-1.17l1.13,-0.51l1.13,0.28l2.9,-1.48l0.42,-0.58l0.98,-0.48l1.27,-0.17l1.32,-0.71l1.03,0.13l0.47,0.66l-0.24,0.47l0.41,0.81l-0.61,0.29l-1.01,-0.04l-0.53,0.36l-0.28,1.17l0.6,1.05l-0.66,0.98l-1.79,-0.05l-0.89,0.5l-0.57,1.49l-1.16,0.86l-0.56,-0.53l-0.49,-0.08l0.17,-0.61l-0.35,0l-1.46,2.17l0.54,0.23l-0.17,0.62l-0.51,0.12l0.12,0.43l-0.26,0.39l0.56,0.09l0.56,-0.57l1.13,1.11l0.75,-0.65l0.2,-0.68l0.56,0l0.04,3.49l0,0l-1.24,-0.1l-0.72,0.26l-1.4,1.37l-0.6,3.49l-0.55,0.65l-0.16,0.98l0.23,0.46l-0.76,1.23l0.19,1.13l0.46,0.58l-0.75,2.96l0.45,1.88l-0.32,0.42l0.14,0.88l0,0l0.25,0.58l0.76,0.43l0.04,0.39l-0.94,1.68l-0.6,0.23l0.22,0.73l-0.5,1.09l0,0l-1.89,0.48l-0.24,-0.62l-1.86,-1.46l-1.75,0.42l-0.47,-0.05l-0.65,-0.76l-0.9,0.13l-0.41,-0.38l-0.25,-1.25l-1.68,-1.59l0,0l1.1,-1.4l0.92,-0.32l1.41,-1.36l4.47,-6.03l1.09,-1.97l1.33,-3.8l0.04,-2.3l-0.95,-1.48l-0.02,-0.87z" id="JP-17" fill-opacity="0" fill="#000000" stroke="#D3D3D3"/>
  <path d="m359.85993,166.19889l0.42,0.16l0.05,0.45l-0.83,-0.04l0.53,0.53l0.5,-0.01l0.33,0.68l-1.03,0.43l-0.73,-0.03l0.01,0.36l0.49,0.27l0.55,-0.12l0.01,0.24l-0.66,0.53l-0.74,-0.03l-0.26,0.27l1.67,1.04l-0.86,0.3l-1.26,-0.53l0.21,0.97l1.02,0.26l-1.22,0.18l0.74,0.57l-0.27,0.28l-1.09,-0.08l-0.47,0.25l-0.42,-0.47l0.04,-0.57l-0.35,-0.17l0.06,0.61l-0.3,0.44l0.69,0.86l-0.43,0.06l0.11,0.91l-0.47,0.34l-0.72,-0.96l0.25,-0.53l-0.2,-0.19l-0.92,0.09l0.16,0.75l0,0l-1.17,-0.49l-1.44,-0.13l-0.24,0.52l0.11,1.78l-0.68,0.7l0.1,0.51l-0.5,1.94l-2.45,-1l-0.9,0.87l-0.17,0.7l-0.52,0.18l-1.77,-1.01l-0.47,-1.09l0.59,-0.55l-0.25,-0.5l-0.72,-0.2l-2.21,0.25l-0.55,-0.81l-1.44,-0.48l-1.22,-0.91l-0.95,0.14l0,0l-0.08,-1.15l0.79,-1.37l-0.14,-0.4l-0.97,-0.38l0.28,-0.97l-0.27,-0.22l0.47,-0.83l0.6,-0.3l-0.85,-0.44l0.33,-1.06l-1.12,-0.77l-0.53,-0.75l0.15,-0.92l-0.6,-1.25l-0.39,-0.09l0.05,-0.65l0.45,-0.12l-0.05,-0.81l0.78,-0.85l0.43,-1.34l-0.21,-0.72l0.42,-0.11l0.61,-0.86l0.27,0.03l0.51,-1.19l-0.13,-1.08l-0.66,-1.17l0.39,-0.14l0.82,-1.47l-1.12,-0.66l-0.07,-1.06l0.82,-0.45l0.49,0.48l0.56,-0.18l-0.62,-2.5l0.05,-2.68l0.52,-0.46l0.15,-1.56l-0.4,-0.49l0.81,-1.11l0.61,-0.22l0.4,-0.57l0,0l0.46,0.68l0.94,0.01l1,-0.78l0.46,-0.02l0.04,-0.72l0.74,-0.5l1.52,-0.38l1.96,-1.49l0.68,1.08l1.72,-1.1l0.68,-0.09l1.24,0.77l0.89,-0.69l0.11,-0.83l1.39,-0.62l0.47,-0.54l0,0l1.37,2.04l1.54,3.46l-0.98,1.08l1.39,0.6l0.46,0.64l-0.12,0.25l-0.49,0.01l-0.36,0.54l0.11,0.98l0.33,0.48l0.51,0.17l0.49,0.89l0.69,0.12l0.4,0.7l-0.32,1.6l0.72,1.21l0.23,2.98l-0.42,1.69l0.44,0.07l-0.85,2.57l0.25,0l1.33,-1.8l0.02,2.02l0.6,0.08l0.29,0.7l-0.15,0.36l-0.62,0.08l-0.86,1.17l-0.7,0.25l0.43,0.88l1.16,-1.13l0.31,-0.05l0.2,0.37l-0.43,1.33l-1.12,0.26l-0.89,0.6l-0.81,1.19l0.34,0.35l0.79,-0.42l0.44,0.54l-1.7,0.29l0.37,0.39z" id="JP-03" fill-opacity="0" fill="#000000" stroke="#D3D3D3"/>
  <path d="m186.50993,317.65889l-0.24,1.03l-1.01,-0.35l-0.6,0.44l-0.44,1.59l0.34,1.66l-1.14,0.48l-0.02,1.1l1.03,0.63l0.33,1.48l-0.31,0.05l-1.68,-1.5l-0.77,-0.11l-0.35,0l-1.21,1.04l-0.59,-0.36l-0.28,0.2l-0.91,-1.06l-1.59,0.88l-0.09,-0.84l0.68,-1.01l-0.05,-0.36l1.16,-1.26l-0.24,-0.38l-0.83,0.07l0.05,-0.38l0.41,-0.1l0.01,-1.33l-0.51,-1.25l0.2,-0.92l-0.76,-0.86l-0.27,-0.88l0.34,-0.37l1.05,1.18l0.19,-0.07l0.85,-1.38l0.6,-0.17l0.49,-1.66l1.21,-0.42l0.89,-0.67l-0.04,-0.57l-0.71,-0.51l-1.08,-2.18l0.73,-0.41l2.17,0.26l1.2,-0.34l0.94,-1.42l-0.32,-0.8l0.62,-1.84l0.83,-0.38l0.06,-0.55l0.75,-0.9l0.65,-1.48l0.54,0.33l0.52,-0.19l0.59,-1.01l4.34,0.04l0.97,-1.2l0.71,0.3l0.47,-0.33l1.06,0l0,0l0.37,0.54l1.34,0.52l1.81,-0.17l0.65,0.9l0.79,0.32l0.61,-0.2l0.42,-0.81l0.39,-0.13l0.25,0.46l0.7,-0.17l0.51,1.26l0.1,2l1.97,0.05l0.23,0.8l-0.47,0.54l0.1,0.47l0.78,1.19l2.11,0.22l0,0l-1.88,3.58l-0.65,3.57l-0.74,-1.21l-0.61,0l-0.12,-0.73l-0.98,-1l-0.43,-1.03l-1.41,-0.68l-0.51,-1.08l-3.23,-0.6l-0.45,-0.55l-3.15,0.5l-0.25,0.47l-2.33,1.17l0.02,0.64l-2.19,0.41l-0.55,1.07l-0.25,-0.58l-0.92,0.3l0.08,0.62l-0.27,0.28l0.21,0.44l-0.34,0.8l0.34,-0.09l0.07,0.53l-0.33,0.19l0.19,0.56l-0.9,0.94l0.25,0.73l-0.24,0.15l-0.07,-0.4l-0.44,0.03l-1.52,2.22z" id="JP-39" fill-opacity="0" fill="#000000" stroke="#D3D3D3"/>
  <path d="m199.67993,288.81889l2.14,-1.22l0.18,-0.96l2.08,0.7l1.61,0.07l1.07,-1.2l0.53,0.38l-0.19,0.96l0.18,0.37l0.36,0.06l0.13,-0.4l0.45,-0.09l1.11,0.23l-0.01,0.41l-0.39,0.31l0.19,0.48l1.13,0.26l0.82,0.63l0.39,-0.06l1.37,1.05l0,0l-0.16,0.96l-0.42,0.22l-1.09,-0.58l-0.28,0.3l-1.63,-0.26l-1.7,0.18l-0.74,0.58l0.06,0.42l-0.32,0.34l-1.24,0.14l-1.17,0.91l-0.47,0l-0.86,-0.97l-1.38,0.25l-0.76,0.29l-0.28,0.5l-0.58,-0.19l-1,0.84l-0.14,0.51l-0.62,0.22l0,0l-1.88,-0.74l0.69,-0.5l0.33,-3.08l-1.51,-1.21l0.07,-0.33l0.31,-0.09l1.59,0.8l0.55,-0.17l1.48,-1.32z" id="JP-37" fill-opacity="0" fill="#000000" stroke="#D3D3D3"/>
  <path d="m139.62993,340.21889l-1.25,-0.65l-0.26,-0.49l-0.57,-0.13l-0.4,-0.71l-0.54,0.76l-0.91,0.41l-0.84,-0.01l-0.6,0.55l-1.04,-0.16l-0.32,-0.62l-0.54,-0.26l0,0l0.18,-1.08l1.04,-1.13l1.25,-2.63l1.66,-1.67l-0.12,-0.96l-0.38,-0.03l-0.07,-0.45l0.67,0.03l0.13,-0.22l-0.9,-0.55l2.44,-2.42l-0.23,-0.2l-1.11,0.46l-2.62,0.1l0.01,-0.38l2.72,-1.83l-0.02,-1.52l0.23,-0.35l-0.85,-1.16l-0.77,-0.18l-0.13,-0.75l-1.46,-0.68l-0.32,-1.75l-0.57,-0.48l0,0l2.14,0.08l-0.18,-1.07l1.62,-1.49l1.5,0.17l0.53,-1.44l0.16,0.4l0.81,-0.04l0.67,0.61l1.53,0.52l0,0l-0.01,0.29l0.87,0.17l0.6,0.79l0.63,0.05l0.4,0.63l0.38,0.01l0.49,-0.63l0.18,-0.85l-0.83,-1.21l0.13,-0.74l1.02,-0.56l1.41,0.26l1.04,1.09l0.19,1.17l0.86,0.78l0.59,1.62l0.21,2.27l1.4,1.27l0,0l-1.26,0.16l-0.56,1l-0.03,0.9l-0.97,0.64l-0.2,0.93l-0.59,0l-0.36,0.54l-0.25,1.41l-0.46,0.34l-0.71,-0.21l-0.29,0.72l-0.4,0.17l-0.25,1.38l0.25,1.13l0.42,0.68l0.44,0.09l0.19,1.15l0.76,0.68l-0.63,1.03l-0.56,0.03l-0.2,0.59l1.15,1.34l0.17,0.91l-0.88,0.11l-1.11,-0.36l-0.7,1.19l-0.4,0.13l-0.85,-0.35l-1,0.71l-2.57,-0.05zm-6.02,-9.78l0.47,-0.07l-0.23,1.28l-0.54,0.76l0.28,0.09l-0.56,0.85l-0.83,0.38l-1.19,-0.52l-0.9,0.08l-0.06,-0.38l-0.51,-0.17l-0.39,0.4l0.5,0.4l0.05,0.44l-0.43,0.99l-1.86,1.35l-0.23,0.86l-1.06,0.71l0.05,0.96l-0.47,0.17l-0.66,-1.1l0.25,-0.87l-0.73,-0.21l0.65,-1.42l-0.44,-0.58l-0.02,-0.72l1.19,-2.41l0.18,-1.13l1.39,-0.65l1.41,-0.15l0.24,0.28l-0.15,0.92l0.26,1.03l1.62,-0.81l0.6,-0.72l0.87,-0.27l0.57,0.37l0.68,-0.14zm-5.17,7.12l-0.08,-0.71l0.58,-0.59l-0.22,0.96l0.66,1.7l-0.46,0.28l-0.47,1.24l-1.02,-0.82l0.08,-0.75l-0.34,-0.36l0.14,-0.87l1.13,-0.08zm5.67,-7.95l-0.53,0.27l-0.36,-0.16l-0.22,-0.87l0.96,-0.89l0.33,0.88l-0.32,0.42l0.14,0.35z" id="JP-43" fill-opacity="0" fill="#000000" stroke="#D3D3D3"/>
  <path d="m301.02993,262.33889l0.41,-1.13l1.79,-0.83l0.46,-0.65l0.71,-0.1l0.49,-0.52l0.34,-0.7l0.02,-2.61l0,0l0.6,0.13l0.46,0.55l0.61,-0.03l0.59,0.99l0.86,-0.16l2.17,0.71l1.35,1.89l0.3,-0.03l0.19,-2.02l-0.79,-0.62l0.22,-0.23l0.49,0.47l0.76,-0.91l2.68,1.27l0.33,0.67l0.48,0.23l0.01,0.38l0,0l0.64,-0.19l0,0l0.01,0l0,0l0.03,0l0,0l0.02,0l0,0l0.42,0.73l-1.49,0.78l-0.74,-0.06l-0.41,0.41l0.38,0.45l0.4,-0.12l0.4,0.29l-0.41,0.88l-0.35,-0.25l-0.47,0.08l-0.1,0.39l0.49,0.26l0.27,1.32l-0.34,0.7l0.96,0.78l1.07,0.23l-0.43,1.06l-0.71,0.09l-0.65,0.55l0.12,0.59l0.34,0.09l-0.04,0.43l-1.34,-0.03l0.15,-1.18l-0.33,-1.18l-0.63,-0.68l0.06,-0.63l-2.54,-0.62l-2.45,0.34l-2.12,0.66l-1.16,0.93l-0.17,2.09l-0.64,0.35l0,0l-1.52,-0.21l-0.13,-0.68l-0.7,-0.54l-0.24,-1.51l0.57,-0.63l0.27,-0.96l-0.34,-1.53l-0.15,-0.24l-1.53,0.01z" id="JP-14" fill-opacity="0" fill="#000000" stroke="#D3D3D3"/>
  <path d="m130.42993,355.81889l1.13,-1.89l0.27,-2.34l-0.2,-1.07l-3.09,-3.19l1.13,-2.7l-0.18,-1.09l-0.73,-1.4l0.57,-1.08l-0.72,-0.58l0.21,-0.54l0.84,-0.43l0.52,0.01l0.68,0.46l1.08,-0.1l0.44,-0.96l0,0l0.54,0.26l0.32,0.62l1.04,0.16l0.6,-0.55l0.84,0.01l0.91,-0.41l0.54,-0.76l0.4,0.71l0.57,0.13l0.26,0.49l1.25,0.65l0,0l-0.48,1l0.65,0.23l0.82,0.79l0.42,1.42l1.08,0.35l0.74,0.85l-0.12,1.26l-0.2,0.07l0.17,0.88l0.65,0.1l0.3,0.36l1.08,0.13l-0.18,0.61l0.79,0.19l0.16,1.57l0.55,0.97l0.5,-0.58l0.71,0.64l0.96,-0.11l0.47,0.29l0.3,0.92l-0.25,0.62l0.19,0.84l-0.62,0.66l-0.12,0.72l0,0l-1.17,-0.42l-0.99,0.78l-0.7,1.09l-0.08,0.8l1.77,0.61l0.02,0.43l-0.65,0.71l0.18,0.18l0.79,-0.28l0.12,0.25l-1.27,1.13l-1.01,0.03l-0.21,0.84l-0.79,1.17l-1.76,0.98l-1.44,0.25l-2.74,2.05l0.36,-1.36l-0.51,-0.4l1.8,-1.39l0.44,-1.12l-0.25,-0.72l0.7,-0.89l0.27,-1.93l-0.94,-2.06l-0.46,-0.6l-0.67,-0.28l0.11,-1.94l-1.35,0.03l-0.87,-0.82l0.68,-0.91l1.05,-0.2l0.74,0.62l-0.11,0.83l1.06,0.09l1.13,-2.06l-0.49,-1.1l-2.67,-0.78l-0.84,0.67l-0.22,1.19l-0.93,1.34l0.15,0.54l-0.7,1.47l-0.24,-0.03l-0.16,0.98l0.26,1.32l0.8,2.06l1.07,0.98l0.89,0.23l-0.52,1.76l-1.03,0.74l-0.62,-0.49l-0.76,0.29l-0.24,-0.29l0.06,-0.82l-0.96,-0.85l-2.12,0.02l-0.86,-0.37l-1.86,0.41l-0.18,-1.48l-0.64,-0.23l0.72,-0.55l-1.54,-1.48l0.54,-0.66l0.26,0.48l1.03,0.51l0.76,-0.54zm4.64,21.96l1.42,0.63l-0.06,0.33l1.37,0.37l0.67,0.63l-0.38,1.76l-1.31,1.32l-1.24,0.3l-1.69,-0.28l-0.26,-0.79l-0.22,0.18l0.01,-0.69l-0.45,-0.58l-0.27,-1.14l0.04,-0.47l0.94,-0.08l0.74,-0.91l0.01,-0.47l0.55,0.09l0.11,-0.37l0.02,0.17zm8.86,-2.67l-0.18,-2.06l0.82,-1.3l0.3,0.01l0.15,-1.34l1.06,-1.27l0.51,1.14l-0.24,0.56l0.16,1.58l-0.51,0.72l0.08,1.15l-0.48,0.63l0.04,0.47l-0.69,0.42l-0.74,1.52l0.14,0.28l-0.22,0.25l0.43,0.52l-0.23,0.47l0.27,0.35l-0.33,0.12l-0.01,0.46l-0.81,-0.01l-1,0.68l-0.3,-0.58l0.17,-0.88l-0.34,-1.35l0.48,0.01l1.47,-2.55zm-24.13,-24.35l-0.77,0.47l-0.41,-0.29l-0.13,-0.56l0.37,-0.21l0.39,-1.12l1.32,-0.49l0.43,-1.24l0.36,0.17l-0.05,0.49l-0.63,1.15l-0.6,0.18l0.11,0.41l-0.38,0.41l0.26,0.32l-0.27,0.31zm2.16,-4.5l-0.32,-0.56l0.35,-0.47l0.54,0.08l0.38,0.49l0.85,-0.19l0.12,0.38l-0.03,0.6l-0.91,0.3l-0.51,-0.27l0.08,-0.33l-0.4,-0.33l-0.15,0.3zm7.82,31.36l0.69,0.49l-0.01,0.26l-0.4,-0.07l-0.67,0.39l-0.38,-0.45l0.08,-0.48l-0.5,0.13l-0.53,-0.75l1.72,0.48z" id="JP-46" fill-opacity="0" fill="#000000" stroke="#D3D3D3"/>
  <path d="m231.14993,270.89889l0.17,-0.53l0.37,-0.21l-0.29,-1.26l-0.97,-0.49l-0.86,0.18l-0.04,-0.74l-0.22,-0.06l-0.81,-0.04l-0.42,0.36l-0.56,-0.24l0.25,-0.55l-0.86,-0.83l-0.02,-0.77l-1.02,-0.03l-0.77,0.47l-1.32,-1.14l-1.49,-0.61l-0.02,-1.26l0.37,-1l1.14,0.55l0.91,-0.52l0.01,-2.63l-0.33,-0.54l-1.33,0.66l-0.72,-0.18l-0.21,-0.61l-0.86,-0.8l-0.02,-2.02l0,0l0.26,0.3l0.97,-0.02l0.59,-0.3l0.45,-0.78l0.81,0.06l1.92,-1.35l1.89,-0.6l1.08,0.68l0.66,1.2l-1.07,1.01l-0.19,0.74l-1.09,1.32l0.06,0.6l0.3,-0.01l0.59,-0.97l0.61,0.34l0.13,0.17l-0.64,0.55l1.35,0.61l0.25,-0.33l0.14,1.38l0.48,-0.48l0.84,0.21l0.05,-0.51l-1.26,-0.79l0.85,-0.68l0.93,-0.11l0.15,-0.58l0.35,-0.01l0.01,0.57l0.41,0.25l0,0l-0.41,0.89l0.52,0.42l-0.29,1.01l1.31,1.21l0.13,0.87l1.73,0.19l1.5,0.59l1.37,-0.26l0,0l1.18,1.84l0.42,-0.01l-0.38,1.44l0.43,2.11l-0.31,1.74l-0.34,0.25l0.29,1.17l0.89,1.51l-0.24,1.07l0.71,0.47l0.73,-0.38l0.13,0.88l0.31,-0.05l0.3,0.37l0.4,-0.15l0.61,0.6l-0.26,0.26l0.15,0.41l0,0l0.45,1.2l0,0l-0.34,0.75l-0.58,-0.08l-0.49,-0.67l-0.99,-0.01l0.08,-0.36l-0.74,1.13l-0.73,0.08l-1.92,-0.52l-0.52,-1.22l0,0l0.28,-0.62l-1.02,-1.15l-0.31,-1.06l-1.24,-1.15l0,-0.62l-0.75,-0.02l-0.26,0.68l0.38,0.42l-0.79,0.26l-0.69,-0.73l-0.25,0.11l-0.07,-1.16l-2.16,-0.6l-0.18,-0.74z" id="JP-26" fill-opacity="0" fill="#000000" stroke="#D3D3D3"/>
  <path d="m257.23993,288.86889l-0.19,0.13l0.66,-1.2l-0.57,-0.33l-0.66,1.41l-1.1,0.74l-0.37,0.05l-0.27,-0.79l-0.28,0.09l-0.23,0.84l-0.09,-0.69l-0.7,-0.01l0.28,0.94l-0.22,0.24l-2.95,0.72l-0.41,-0.11l-0.64,0.55l-0.55,1.01l0.35,0.61l0.42,-0.06l-0.35,0.69l-0.61,0.1l-0.37,-0.54l-0.41,0.11l0.18,0.32l-0.7,0.24l0.18,0.32l0.68,-0.1l0.01,0.68l0.72,0.37l-0.17,1.2l-0.66,0.09l-0.78,1.13l-0.94,0.18l-0.41,0.66l-0.61,-0.03l-1.06,1.88l-0.72,2l0,0l-1.29,-0.27l-1.7,-1.94l0.07,-1.92l0,0l1.1,-1.72l1.21,-0.39l0.83,-1.12l1.62,0.25l-0.14,-1.33l0.24,-0.27l0.12,-1.75l-0.37,-0.68l0.73,-1.36l-0.69,-1.15l0.67,-0.36l-1.16,-1.85l0.5,-0.95l2.18,-0.32l0.39,-0.94l-0.29,-0.96l-0.65,0.26l-0.46,-1.01l-0.82,0.27l-1.04,-0.51l-0.26,-0.41l0.44,-1l-0.05,-0.6l0.38,-0.52l-0.8,-1.57l0,0l-0.45,-1.21l0,0l1.34,-0.55l-0.07,-0.51l0.77,-0.63l-0.08,-0.25l-0.62,-0.05l-0.07,-0.25l0.47,-0.39l0.32,0.38l1.02,-0.02l1.34,0.66l2.33,-1.13l0.21,-0.92l0.79,-1.1l0.04,-1.38l0.73,-2.5l-0.71,-0.73l-0.08,-0.85l0,0l0,0l0,0l2.21,-0.95l1.7,2.49l1.08,0.12l0,0l0.32,1.21l0.97,1.57l0,0l-0.76,0.2l-0.92,0.69l-0.36,1.02l0.26,1.12l-1.93,2.95l-0.56,1.63l0.06,0.66l0.67,0.29l-0.38,1.33l2.1,0.61l0.28,0.68l1.28,0.47l1.08,0.81l1.18,0.03l0.22,0.65l0.56,0.13l-0.21,0.28l0.16,0.28l0.71,-0.13l0.28,0.29l0.08,0.73l-1.13,0.67l0.11,0.33l0.63,0.14l-0.63,0.71l0.29,0.47l-0.46,1.27l-0.97,0.27l-1.37,-0.47l1.08,-0.16l0.54,0.27l0.07,-0.65l-0.48,-0.12l-0.27,0.2l-1.46,-0.34l-0.53,0.36z" id="JP-24" fill-opacity="0" fill="#000000" stroke="#D3D3D3"/>
  <path d="m343.28993,189.88889l-0.41,0.71l0.32,0.25l0.34,-0.15l0.18,0.65l-1.26,0.75l-1.71,3.62l-0.4,3.7l0.32,1.95l0,0l-0.69,-0.18l-0.72,0.27l0.03,2.17l-0.13,0.22l-1.58,-0.06l0.47,0.39l-0.15,0.16l-1.21,-0.27l-0.63,-0.5l-0.28,-0.75l0.18,-1.14l-0.56,-0.46l-0.82,-0.28l-2.65,0.27l-0.37,-1.09l-1.14,-0.69l-1.13,0.57l-1.39,-0.66l0,0l-0.06,-1.98l1.72,-0.01l0.99,-0.55l0.19,-1.02l1.11,-1.58l-0.23,-1.23l0.16,-1.02l1.05,-1.32l-0.16,-0.6l1.09,-1.14l0.61,-1.6l-0.2,-0.7l-0.6,-0.39l-0.27,-0.91l0.38,-0.65l-0.03,-0.54l-0.61,-1.37l0.1,-0.23l0.66,0.35l0.4,-0.1l0.43,-1.15l-0.22,-0.97l0.68,-1.1l-0.83,-0.45l-0.19,-1.06l-1.06,-1.02l0.23,-0.35l0,0l0.27,0.18l1.76,-0.36l1.64,-1.57l0.71,-0.17l0,0l0.95,-0.14l1.22,0.91l1.44,0.48l0.55,0.81l2.21,-0.25l0.72,0.2l0.25,0.5l-0.59,0.55l0.47,1.09l1.77,1.01l0.52,-0.18l0.17,-0.7l0.9,-0.87l2.45,1l0.5,-1.94l-0.1,-0.51l0.68,-0.7l-0.11,-1.78l0.24,-0.52l1.44,0.13l1.17,0.49l0,0l0.85,2.85l-0.38,-0.12l-0.51,-0.82l-0.69,0.2l-0.09,1.67l-1.36,0.84l-0.15,0.56l1.02,0.68l-0.05,1.21l-0.71,-0.64l-1.01,0.94l-0.6,0.18l-0.03,0.72l1.72,0.21l-0.12,0.68l-0.72,0.64l-0.47,0.05l0.03,0.49l0.45,0.2l0.16,0.54l0.48,-0.17l0.61,0.36l-0.29,0.95l-0.47,-0.65l-0.36,0.11l0,1.65l-0.93,-0.02l0.36,0.32l0.12,0.94l1.33,-0.16l0.03,0.29l-0.66,0.12l0.69,1.8l-0.34,0.98l-1.46,-1.06l0.26,-0.52l-0.93,-0.27l0.26,-0.45l0.57,-0.22l-0.54,-0.64l-1.13,0.38l-0.17,-0.66l-0.27,-0.11l-0.97,-0.06l-1.56,0.45l-1.25,0.84l0.12,0.92l-0.54,0.17l-0.07,-1.38l-0.92,-0.12l-0.51,0.31l0.02,0.4z" id="JP-04" fill-opacity="0" fill="#000000" stroke="#D3D3D3"/>
  <path d="m154.90993,341.45889l-1,3.38l-0.15,1.45l0.83,1.17l-0.56,1.56l0.06,2.02l-0.79,0.46l-0.9,2.09l0.24,0.8l-0.55,0.34l0.19,0.96l-0.78,0.73l0.34,0.71l-0.51,0.03l-0.52,-0.46l-0.88,0.08l-0.68,-1.51l-1.05,-0.26l0,0l0.12,-0.72l0.62,-0.66l-0.19,-0.84l0.25,-0.62l-0.3,-0.92l-0.47,-0.29l-0.96,0.11l-0.71,-0.64l-0.5,0.58l-0.55,-0.97l-0.16,-1.57l-0.79,-0.19l0.18,-0.61l-1.08,-0.13l-0.3,-0.36l-0.65,-0.1l-0.17,-0.88l0.2,-0.07l0.12,-1.26l-0.74,-0.85l-1.08,-0.35l-0.42,-1.42l-0.82,-0.79l-0.65,-0.23l0.48,-1l0,0l2.57,0.05l1,-0.71l0.85,0.35l0.4,-0.13l0.7,-1.19l1.11,0.36l0.88,-0.11l-0.17,-0.91l-1.15,-1.34l0.2,-0.59l0.56,-0.03l0.63,-1.03l-0.76,-0.68l-0.19,-1.15l-0.44,-0.09l-0.42,-0.68l-0.25,-1.13l0.25,-1.38l0.4,-0.17l0.29,-0.72l0.71,0.21l0.46,-0.34l0.25,-1.41l0.36,-0.54l0.59,0l0.2,-0.93l0.97,-0.64l0.03,-0.9l0.56,-1l1.26,-0.16l0,0l0.48,0.58l0.38,0.01l2.02,-0.7l0.83,0.86l-0.18,0.47l0.19,0.29l0.9,0.3l0.52,-0.44l2.23,0.02l0.49,-0.58l0.15,-0.74l0.8,-0.15l1.64,0.62l-0.26,1.56l0.56,0.01l0,0l-0.23,0.52l-1.56,0.97l-0.59,1.67l-1.08,0.53l-0.4,0.87l0.23,0.63l0.73,0.53l-0.66,0.54l-0.9,0.17l0.19,0.55l0.59,0.35l-0.92,0.36l-1.17,2.78l-1.55,5.64z" id="JP-45" fill-opacity="0" fill="#000000" stroke="#D3D3D3"/>
  <path d="m287.08993,219.25889l1.85,-1.22l2.56,-2.64l2.31,-1.3l2.29,-3.85l0.84,-0.58l0.68,-1.18l1.38,-4.61l0.91,-1.1l4.07,-2.93l2.38,-0.63l1.71,-1.11l1.75,-1.88l1.24,-2l0.41,-1.59l0.13,-3.88l1.85,-3.75l0,0l1.81,0.96l1.48,0.32l0.24,0.29l-0.4,1.99l0.8,1.13l1.84,0.48l1.15,1.23l-0.79,1.59l-1.37,0.86l-1.58,-0.22l-0.52,0.82l0.16,1.31l-0.34,0.82l0.35,0.76l-0.69,0.51l-0.59,3.17l0.66,1.16l0.66,0.32l0.45,-0.13l0.45,0.77l0,0l-1.58,1.71l-0.71,1.3l0.13,0.24l-1.53,1.04l-0.03,0.73l0.42,1.03l-0.09,0.81l0.38,0.82l-0.48,0.23l-1.26,-0.22l-0.37,0.24l-0.39,-0.32l-0.47,0.04l-0.41,0.16l-0.32,1.19l-0.68,-0.24l-0.55,0.29l-2.15,0.24l-0.57,0.92l0.67,0.56l-0.14,1.19l-0.2,1.16l-0.97,1.4l0.59,0.8l0.68,0.16l0.47,0.93l-0.35,1.28l0.42,1.39l-0.22,0.78l0.11,1.34l-0.24,0.42l0,0l-0.23,-0.34l-0.92,-0.07l-0.11,-0.76l-1.54,-1.55l-0.12,0.96l-0.82,0.73l-1.63,0.28l0.27,1.93l-0.1,0.25l-0.84,-0.1l-0.29,0.95l0.25,0.44l-1.49,0.62l-0.65,-0.03l0.11,1l-0.79,0.67l-1.2,-0.44l-0.36,0.63l-0.25,-0.16l0,0l-0.12,-0.48l-0.38,-0.25l0.52,-0.85l-0.23,-0.46l0.14,-0.73l-0.98,-0.45l-1.03,-1.09l-0.04,-1.55l-0.42,-0.94l-0.81,-0.23l-2.56,0.81l-0.73,1.56l-1.19,0.53l-0.26,1.65l-0.25,0.04l-0.29,-0.63l-0.85,-0.06l-1.01,0.66l-1.24,0.02l-0.93,1.06l-0.95,-0.69l0.55,-1.29l-0.37,-0.56l-1.86,-0.39l-1.01,0.09l0.08,1.29l-0.78,1.31l-1.37,1.05l0,0l-0.59,-1.68l0,-0.77l-0.39,-0.6l-0.03,-1.19l-0.82,-0.25l-0.7,-0.81l0,0l5.42,-1.98l1.81,-1.33l0.86,-0.3l0.92,-1.1l1.11,0.28l1.2,-0.21zm5,-24.77l-0.59,1.26l0.19,1.07l0.7,0.3l1.61,-0.65l0.2,0.25l-1.42,3.93l-2.75,2.23l-1.1,0.06l-1.01,0.61l-0.74,-0.15l-0.21,-0.47l1.31,-0.57l0.34,-0.84l-0.1,-0.85l1.11,-1l0.23,-0.89l-0.25,0.41l-0.52,-0.58l-0.61,-0.1l-0.56,1.05l-0.41,-0.24l0.01,-0.88l-0.23,-0.15l0.35,-0.35l0.03,-1.37l0.98,-1.25l0.7,-1.59l0.78,-0.38l0.68,-0.99l0.71,-0.18l0.46,-1.54l1.09,-0.26l-0.44,3.21l-0.54,0.9z" id="JP-15" fill-opacity="0" fill="#000000" stroke="#D3D3D3"/>
  <path d="m274.32993,265.08889l-0.01,-0.53l0.84,-0.65l-0.26,-1.27l0.87,-0.29l-0.71,-0.98l0.65,-0.7l0,-0.91l-0.57,-0.54l-1.07,0.32l-0.31,-0.55l0.07,-1.1l-0.39,-0.45l0.43,-1.28l-0.78,-0.7l-0.8,-1.79l-1.23,-0.37l-0.05,-0.51l-1.04,-0.01l-0.29,-0.39l0.11,-0.54l0.59,-0.25l0.35,-1.06l1.15,-0.35l0.33,0.33l0.42,-0.07l0.52,-1.06l0.44,-0.1l0.37,-0.92l1,-0.76l0.39,-1.57l-0.72,-0.25l-0.46,-0.5l0.01,-0.81l0.75,-0.71l0.05,-0.52l-0.38,-0.55l1.39,-1.81l0.09,-0.78l-0.09,-0.53l-1.03,-0.66l-0.13,-0.51l0,0l0.9,-0.86l0.42,-0.81l-0.02,-0.75l0.39,-0.53l0.61,-0.17l-0.12,-0.49l-0.21,0.04l0.11,-0.77l1.18,-0.7l0.2,-4.18l0,0l1.37,-1.05l0.78,-1.31l-0.08,-1.29l1.01,-0.09l1.86,0.39l0.37,0.56l-0.55,1.3l0.95,0.69l0.93,-1.06l1.24,-0.03l1.01,-0.65l0.85,0.06l0.29,0.62l0.24,-0.04l0.26,-1.65l1.19,-0.53l0.73,-1.57l2.57,-0.81l0.81,0.23l0.42,0.94l0.04,1.55l1.03,1.09l0.98,0.45l-0.14,0.73l0.23,0.45l-0.52,0.86l0.38,0.24l0.12,0.48l0,0l-1.55,0.83l-1.79,0.36l-0.01,1.09l-0.96,0.16l-0.96,1.18l0.02,0.99l-0.6,1.66l0.06,1.3l1.25,0.74l0.43,0.07l0.21,-0.31l0.88,0.25l0.44,-0.4l0.7,-0.1l0.83,0.25l0.29,1.15l-0.07,1.48l-1.03,0.68l0.23,1.11l0.42,0.44l-0.03,0.81l-0.45,0.48l-0.46,-0.33l-0.16,0.17l0.44,0.76l0.65,0.08l0.28,0.67l-0.33,0.35l0.38,1.77l0.61,0.19l0.36,0.52l0.36,-0.09l0,0l-0.1,0.46l0.52,1.05l-0.2,0.52l0,0l-0.4,-0.01l-0.73,0.94l-0.97,0.01l-0.54,-1.14l-1.76,-0.03l-0.22,0.41l-0.48,0.09l-0.48,-0.53l0.01,-0.67l-1.43,-0.58l-1.77,2.71l-0.72,-0.62l-0.2,0.12l-0.97,1.97l0.88,0.86l-1,1.1l0.73,1.77l0,0l-0.58,1.64l-0.36,-0.14l-0.56,0.65l0.33,0.26l-0.41,0.56l0.42,1.31l-0.74,0.26l0,0.67l0.53,0.67l-0.14,0.72l-1.65,0.63l-1.21,1.01l-1.28,0.64l-0.21,0.43l-0.51,0.01l-0.46,0.93l-1.07,0.11l0,0l-0.84,0.26l-0.22,-0.39l-1.55,-0.3l-0.86,0.56l-1.25,0.26l0,-0.51l-0.63,-0.81l0.31,-0.83z" id="JP-20" fill-opacity="0" fill="#000000" stroke="#D3D3D3"/>
  <path d="m244.43993,278.17889l0.8,1.57l-0.38,0.52l0.05,0.59l-0.43,1.01l0.26,0.41l1.03,0.5l0.82,-0.27l0.47,1.01l0.65,-0.27l0.29,0.96l-0.39,0.95l-2.18,0.32l-0.5,0.95l1.15,1.85l-0.66,0.36l0.69,1.16l-0.72,1.36l0.37,0.68l-0.13,1.75l-0.24,0.27l0.14,1.33l-1.62,-0.25l-0.82,1.11l-1.21,0.39l-1.1,1.72l0,0l-2.01,0.34l-0.66,-0.41l-0.66,-0.01l-1.15,0.68l-0.22,-0.57l-0.37,-0.13l0.71,-1.83l-0.28,-0.51l-0.58,-0.21l0.06,-0.52l-1.14,-0.96l0.12,-0.54l1.5,-1.45l0.38,-0.58l-0.01,-0.71l0.54,-0.27l0.81,0.37l0.39,-0.6l-0.21,-0.65l-0.89,-0.5l-0.2,-1.72l-0.4,-0.68l0,0l0.61,-0.37l0.19,-1.1l-0.08,-1.17l-0.53,-1.25l0.57,-0.9l-0.21,-0.45l-0.38,-0.07l0.51,-2.37l0.51,-0.44l0.16,-1.36l0.35,0.06l0,0l0.52,1.22l1.92,0.52l0.73,-0.08l0.74,-1.13l-0.08,0.36l0.99,0.01l0.49,0.67l0.58,0.08l0.34,-0.75z" id="JP-29" fill-opacity="0" fill="#000000" stroke="#D3D3D3"/>
  <path d="m130.35993,322.23889l0.95,-0.14l0.49,0.36l0.88,1.71l0,1.1l-0.61,0.8l0.23,0.31l-0.21,0.49l-1.61,0.6l-0.66,0.85l-1.27,0.47l0.03,-0.68l-0.8,-0.49l0.08,-0.87l1.41,-1.12l0.06,-0.61l-0.47,-0.25l0.19,-0.42l-0.26,-0.29l-1.86,-0.03l-1.08,0.71l-1.53,-0.09l-0.19,0.99l-0.94,1.49l-0.96,0.57l-0.84,1.1l-1.31,0.48l0.24,-0.54l0.59,-0.24l1.01,-3.05l-1.29,-1.53l0.19,-0.45l-0.56,-0.09l-0.18,0.41l-0.9,-0.87l-0.6,-1.76l-0.63,-0.82l-0.07,-0.57l0.46,-0.73l0.23,-1.58l0.97,-0.27l0.56,0.72l-0.15,1.17l0.39,0.09l0.25,-0.42l1.01,0.62l0.02,1.63l-0.38,-0.01l0.15,0.72l-0.32,0.66l0.59,0.06l0.59,0.76l0.97,-1.13l1.63,1.03l0.57,-0.25l-1.53,-1.8l0.39,-1.47l-0.38,-0.94l-1.4,-0.94l-1.56,0.12l-0.83,-0.39l-0.32,-2.01l-0.45,0.09l0.22,0.81l-0.88,0.59l-0.19,-0.72l0.64,-0.08l-0.23,-0.69l-0.82,-0.06l-0.34,-0.68l-0.73,-0.49l-0.55,0.01l0.13,-0.89l0.58,-0.42l-0.26,-1.42l0.4,-1.14l0.59,0.46l0.9,-0.88l0.29,0.27l-0.35,0.53l0.19,0.27l0.75,0.15l0.66,-0.46l0.34,0.32l0.33,-0.45l0.21,0.84l0,0l-0.59,0.99l1.05,1.38l0.03,1.26l1.38,0.58l1.02,-0.1l0.36,0.87l-0.1,0.42l-0.52,0.1l-0.05,0.36l1.15,0.77l1.55,1.65l2.8,0.68l0,0l-0.05,0.6l-0.68,0.34l-0.8,0.93l0.85,0.74l1.74,-0.7zm-18.32,-34.3l0.35,-1.14l-0.56,0.71l-1.32,-0.05l-0.5,-0.3l0.52,-0.14l0.28,-0.44l0.13,-1.99l0.67,-1.35l0.41,-0.18l-0.02,-0.42l-0.78,-0.11l-0.03,-0.37l0.37,-0.44l0.3,-1.43l1.44,-0.07l0.39,-0.96l0.71,-0.35l0.65,0.29l0.31,0.61l-0.55,1.46l0.07,1.24l-0.76,1.21l-1.3,1.23l0.57,0.97l-0.26,1.12l0.49,0.06l0.11,0.29l-0.88,0.74l0.03,0.4l0.38,0.16l-0.67,0.63l-0.61,-0.13l-0.91,3.46l-1.37,1.09l-0.2,-0.45l-0.72,0.01l0.76,-5.44l0.48,0.3l-0.12,0.61l0.85,-0.28l0.02,-0.39l1.27,-0.16zm-9.63,37.35l0.14,1.19l0.94,0.82l-0.08,0.33l-1.45,0.1l-0.22,-0.45l-0.74,0.25l-0.15,0.58l0.51,0.27l0.11,0.39l-0.43,0.44l-0.38,-0.13l-0.35,-0.67l-1.6,0.39l-1.11,-0.51l0.27,-0.82l0.2,0.3l0.96,-0.41l-0.44,-0.67l-0.17,-1.9l0.33,-0.45l0.47,0.04l0.54,0.68l2,-1.13l-0.01,0.47l0.66,0.89zm5.18,-7.19l-0.31,1.55l0.65,-0.04l0.87,-0.58l0.32,0.14l0.03,0.57l-1.71,1.49l0.08,1.28l-0.69,-0.06l-0.13,1.09l-0.32,-0.16l0.31,-1.54l-0.46,-1.31l-0.27,0.3l-0.6,-0.27l0.41,-0.77l0.7,0.02l-0.12,-1.21l1.19,-1.24l-0.16,-0.96l0.38,-0.99l0.16,1.34l-0.33,1.35zm8.27,-7.75l0.31,0.1l0.06,-0.34l-0.55,0.01l0.15,-0.38l0.63,-0.08l0.16,0.66l-0.19,0.26l0.32,0.31l-0.47,0.21l-0.03,0.42l-0.45,0.1l0.22,0.36l-1.35,2.28l-1.85,1.04l-0.41,-0.28l0.07,-0.54l0.38,0.44l0.44,-0.03l-0.28,-0.88l0.92,-0.52l-0.45,-0.59l0.77,-1.26l1.29,-1.3l0.31,0.01zm-13.11,12.54l0.83,0.52l-0.43,1.36l-0.75,-0.49l-0.08,-1.28l0.43,-0.11zm2.94,-0.38l-0.53,-0.26l-0.4,-0.66l0.71,0.1l-0.37,-0.54l0.2,-0.33l0.9,0.82l-0.11,1.23l-0.4,-0.36zm2.64,-10.19l-0.02,0.42l0.32,0.14l-0.56,0.28l0.04,0.24l-1.14,-0.24l-0.06,-0.27l0.44,-0.38l0.58,-0.03l0.05,-0.32l0.35,0.16zm-3.98,11.59l-0.16,-0.41l-0.35,-0.08l-0.02,-0.42l-0.82,-0.53l0.33,-0.36l0.57,0.16l0.26,0.74l0.37,-0.81l0.18,0.07l0.13,0.43l-0.44,0.54l0.2,0.29l-0.25,0.38zm9.2,-13.4l0.55,-1.66l0,2.09l-0.72,-0.1l0.17,-0.33zm3.33,-2.56l-0.45,0.29l-1.1,-0.06l1.17,-0.93l0.54,0.35l-0.16,0.35zm-10.14,6.9l-0.23,0.13l-0.39,-0.31l0.32,-0.54l0.43,0.27l0.59,-0.18l-0.18,0.68l-0.54,-0.05z" id="JP-42" fill="#000000" fill-opacity="0" stroke="#D3D3D3"/>
  <path d="m82.15993,466.98889l0.83,-0.81l2.11,-0.89l0.38,-0.75l-0.74,-0.6l-1,-0.1l-0.33,-0.83l0.31,-0.35l-0.38,-0.53l0.06,-0.6l0.52,0.27l1.11,-0.17l0.77,0.3l0.19,0.2l-0.34,0.71l0.32,0.48l0.92,-0.11l0.94,-0.6l0.31,-0.9l0.82,-0.39l-0.02,-0.31l1.44,-1.37l0.42,-1l-0.09,-0.59l0.25,-0.12l0.91,0.71l0.39,2.04l-1.76,2.62l-1.76,0.03l0.05,0.69l-0.52,-0.1l0.55,0.79l-1.15,0.72l-1.15,-0.38l0.33,0.67l-1.71,1.16l-0.33,0.67l-1.59,-0.45l-0.75,0.57l0.21,0.58l0.7,0.53l-0.07,0.48l0.99,1.06l-0.05,0.35l-1.01,-0.89l-0.67,0.14l-1.32,2.79l0.2,0.3l0.74,-0.1l0.28,0.56l-1.64,1.05l-0.45,0.63l-0.95,0.34l-0.39,-0.21l-0.39,-2.51l1.4,-1.64l0.96,-0.49l0.05,-0.26l-0.88,-2.1l0.03,-0.64l0.16,-0.15l0.24,0.38l1.55,-0.88zm35.08,-42.13l-1.1,1.43l-1.07,0.4l-0.5,-0.19l-0.28,1.13l0.38,0.75l-1.07,0.74l-0.18,0.6l-0.35,-0.3l-0.29,0.3l0.21,1.01l-1.64,-0.93l0.03,-0.5l-0.45,-0.87l-1.89,-0.3l-0.85,-0.66l1.8,-0.45l0.18,-0.19l-0.38,-0.46l0.97,-0.56l0.76,-0.04l0.72,-0.88l0.53,0.33l0.55,-0.71l1.04,0.12l0.3,-0.74l0.3,0.31l0.56,-0.01l0.23,-0.9l0.49,-0.52l0.51,0.15l1.04,-0.46l0.16,0.95l-0.22,0.26l0.37,0.19l0.72,-1l-0.57,-0.93l0.89,-0.62l0.11,0.91l0.48,0.33l-0.07,1l-1.01,0.73l-1.02,-0.09l-0.39,0.67zm-111.44,87.79l-0.22,0.94l-0.5,0.16l0.03,0.73l-0.4,-0.04l-0.11,0.46l-0.85,-0.37l-1.59,-0.15l-0.59,-0.42l-0.12,0.46l-0.75,-0.1l-0.38,-0.54l0.83,-0.91l0.52,0.19l0.27,0.45l0.18,-1.2l-0.19,-0.39l0.66,-0.95l0.71,0.59l1.23,0.16l1.27,0.93zm99.16,-76.37l-0.05,0.87l1.38,1.22l-0.97,2.05l-1.03,0.19l-1.12,-1.37l0.51,-0.9l-0.54,-1.57l0.42,-1.32l1.44,0.04l-0.04,0.79zm-94.63,74.41l1.06,-0.13l-0.05,-0.35l0.71,-1.03l0.44,0.28l0.33,-0.74l-0.26,-0.44l0.51,-0.56l0.06,-0.49l0.57,0.1l-0.14,0.79l-0.59,0.52l0.11,0.29l-0.51,0.5l-0.03,0.42l-0.62,0.54l0.16,1.09l-0.36,1.4l-1.69,0.37l-0.24,-0.46l-0.62,-0.29l0.5,-0.46l0.11,-0.58l-0.86,-0.41l-0.3,0.36l-0.31,-0.33l0.14,-0.51l0.83,0.18l-0.01,-0.8l1.06,0.74zm21.34,-6.62l0.17,-0.26l0.12,0.38l0.34,-0.03l-0.56,-0.99l0.45,-0.33l0.14,-0.65l-0.56,-1.37l0.18,-0.19l1.38,2.04l0.01,0.52l1.91,0.79l0.4,0.67l-2.86,0.41l-0.93,-0.5l-0.19,-0.49zm66.54,-56.89l-0.59,0.55l-0.8,0.23l-0.57,-0.52l-0.14,-0.81l0.21,-0.37l1.23,0.17l1.89,-0.96l0.38,0.04l-1.61,1.67zm11.68,-17.61l0.39,0.18l0.3,-0.52l0.61,1.09l1.12,0.16l0.21,0.33l-0.28,0.58l-0.38,0.18l-0.55,-0.51l-0.18,0.65l-0.71,-0.83l-0.66,0.51l0.1,-1.4l-0.63,-0.38l-0.27,-0.69l0.69,-0.29l0.19,0.22l-0.3,0.23l0.35,0.49zm-48.32,40.42l-0.89,-0.5l-0.26,-0.5l1.45,-0.38l0.79,0.92l-0.38,0.49l0.14,0.71l-0.66,-0.3l-0.19,-0.44zm64.35,-45.08l-1.2,1.87l-0.58,0.22l-0.49,-0.38l0.05,-0.73l0.61,-0.07l1.2,-1.14l0.41,0.23zm-96.49,77.84l0.01,-0.67l0.31,0.37l0.2,-0.73l0.9,0.39l0.24,0.7l-1.2,0.27l-0.46,-0.33zm55.41,-48.5l0.9,-1.03l0.5,-0.09l-0.59,1.1l-1.46,1.17l0.65,-1.15zm-2.64,6.79l0.24,0.54l-1.3,0.04l-0.26,-0.23l0.21,-0.42l1.11,0.07zm-9.03,11.13l0.29,0.24l0,0.55l-0.26,0.21l0.09,0.5l-0.45,0.41l-0.06,-0.98l0.39,-0.93zm11.43,-16l0.39,0.45l-0.07,0.47l-0.28,0.08l-0.56,-0.59l0.52,-0.41zm-77.58,58.68l0.56,0.25l-0.31,0.53l-0.47,-0.41l0.22,-0.37zm65.24,-43.19l0.42,0.21l-0.48,0.46l-0.49,-0.15l0.55,-0.52z" id="JP-47" fill-opacity="0" fill="#000000" stroke="#D3D3D3"/>
  <path d="m232.13993,283.27889l0.37,-0.8l-0.64,-0.14l-0.03,-0.81l0.3,-0.51l0.74,-0.43l-0.46,-0.23l0,0l0.54,-1.21l-0.15,-1.43l-0.74,-1.24l0.47,-2.04l-0.43,-0.25l0.91,-0.51l-0.96,-0.14l-1.4,-0.81l0.24,-0.36l-0.08,-0.97l-0.4,-0.24l0.29,-0.31l0.43,0.05l0,0l0.19,0.74l2.16,0.6l0.07,1.16l0.25,-0.11l0.69,0.73l0.79,-0.26l-0.38,-0.42l0.26,-0.68l0.75,0.02l0,0.61l1.24,1.15l0.3,1.06l1.03,1.16l-0.29,0.62l0,0l-0.35,-0.06l-0.15,1.36l-0.51,0.44l-0.51,2.37l0.38,0.08l0.21,0.45l-0.57,0.9l0.53,1.26l0.08,1.16l-0.19,1.1l-0.61,0.37l0,0l-1.29,0.18l-1.2,0.8l-1.62,-0.14l-2.06,0.74l-1.63,0.09l-1.23,0.79l-1.04,0.18l-0.43,-0.04l-0.13,-0.88l-0.27,-0.09l0,0l2.57,-0.85l1.84,-1.68l0.97,-1.49l1.15,-1.04z" id="JP-27" fill-opacity="0" fill="#000000" stroke="#D3D3D3"/>
  <path d="m204.66993,282.20889l-1.41,1.09l-0.47,1.72l-1.96,-0.54l-0.52,0.34l-1.84,-0.34l-0.62,-0.78l-1.6,0.29l-0.27,0.31l0.24,0.22l-2.22,0.76l-0.69,-0.84l0,0l-0.12,-1.74l-1.21,-1.65l0.01,-1.38l-0.41,-1.9l0.29,-1.12l-1.6,-2l0.01,-1.6l0.46,-1.21l-1.01,-1.22l0,0l0.36,-0.25l0.24,-0.84l0.38,0.22l1.81,-0.63l-0.33,-1.19l0.27,-0.38l0.78,0.33l1.21,-0.49l0.21,-0.5l-0.21,-0.48l0.96,-0.25l0.78,-2.43l1.7,0.63l1.27,0.01l1.07,0.74l0.52,0.91l0.66,-0.5l0.2,-0.54l1.16,-0.49l0.03,-0.48l1.5,-0.43l-0.15,0.89l0.19,0.17l0.79,0.21l0.94,-0.17l0.69,0.59l0.22,0.42l-0.12,0.61l0.49,0.31l-0.19,0.71l0.51,0.63l1.48,-0.92l0.54,0.27l0.69,-0.13l1.39,-1.16l0.3,0.23l0,0l-0.44,0.8l0.63,0.66l-0.08,0.78l-0.67,-0.07l-0.24,0.26l-0.24,1.1l-0.59,0.25l-0.06,0.93l-0.92,0.54l0.2,0.59l-0.15,0.91l-0.35,0.32l0.68,0.85l-0.7,1.31l0.18,0.47l1.08,0.96l0.54,1.37l0,0l-0.5,0.33l-0.2,-0.28l-0.66,-0.01l-1.76,1.98l-0.37,0.89l-0.98,0.59l-1.28,0.06l-0.52,0.38zm5.26,2.84l-0.37,0.06l0.68,-0.71l-0.86,0.2l-0.67,1.29l-0.23,-0.59l0.37,-0.49l-0.11,-0.24l-0.5,-0.29l-1.17,0.5l-0.21,-0.25l0.45,-0.86l3.68,-1.35l-0.12,0.47l0.3,0.34l-0.4,2.25l-0.4,-0.52l-0.44,0.19z" id="JP-33" fill-opacity="0" fill="#000000" stroke="#D3D3D3"/>
  <path d="m141.90993,316.82889l0.35,-0.25l0.48,-1.38l-0.84,-0.73l0.03,-0.62l-0.36,-0.19l0.12,-0.38l0.52,-0.26l0.14,-0.64l-0.29,-0.95l-0.3,-0.16l0.47,-0.69l0.49,-0.13l0.3,-1.65l1.61,-1.38l0.93,-0.23l0.97,0.27l1.91,-0.11l-0.13,-0.46l0.39,-0.52l-0.3,-0.8l0.15,-0.37l0,0l0.32,-0.43l1.78,0.91l2.57,0.12l0.09,-0.45l1,-0.9l0.49,-0.96l1.68,-0.5l1.6,0.81l1.25,1.67l0.27,1.08l-0.09,1.79l-0.32,0.15l-0.4,1.21l-1.37,-0.4l-0.18,0.29l0.5,0.65l-0.12,0.22l-0.91,0.1l-0.21,0.59l-0.73,-0.11l-0.24,-0.42l-0.71,0.15l-0.12,0.71l0.35,1.5l1.5,0.51l1.88,-0.81l1.34,0.96l2.96,-0.67l-1.36,2.03l-0.5,1.26l0.7,0.31l1.08,-0.49l0.32,0.28l-0.69,0.34l-0.4,0.68l0.99,0.29l0.3,0.03l0.29,-0.71l0.59,0.84l0.36,-0.17l-0.03,-0.51l0.29,-0.14l0.07,0.8l-0.5,0.36l-1.03,-0.11l-0.75,1.38l0.12,0.28l0.58,0.19l0.25,0.46l0.72,-0.26l0.45,0.37l1.64,0.07l0.07,0.26l-2.11,0.27l0.17,0.77l0.61,-0.02l-0.81,0.76l0.66,0.7l-1.43,1.02l-0.92,-0.47l-0.25,1.53l0,0l-0.56,-0.01l0.26,-1.56l-1.64,-0.62l-0.8,0.15l-0.15,0.74l-0.49,0.58l-2.23,-0.02l-0.52,0.44l-0.9,-0.3l-0.19,-0.29l0.18,-0.47l-0.83,-0.86l-2.02,0.7l-0.38,-0.01l-0.48,-0.58l0,0l-1.4,-1.27l-0.21,-2.27l-0.59,-1.62l-0.86,-0.78l-0.19,-1.17l-1.04,-1.09l-1.41,-0.26l-1.02,0.56l-0.13,0.74l0.83,1.21l-0.18,0.85l-0.49,0.63l-0.38,-0.01l-0.4,-0.63l-0.63,-0.05l-0.6,-0.79l-0.87,-0.17l0.02,-0.31z" id="JP-44" fill-opacity="0" fill="#000000" stroke="#D3D3D3"/>
  <path d="m121.38993,311.53889l0.67,0.96l0.16,-0.92l-0.19,-0.19l0.67,-1.39l-1.75,-1.34l0.48,-0.15l-0.26,-0.34l0.27,-0.32l0.39,0.14l0.35,0.8l0.28,-0.22l-0.56,-1.18l-0.03,-0.32l0.54,-0.03l-0.2,-0.88l0.64,0.48l0.32,-0.04l0.02,-0.27l0.68,-0.03l0.03,0.34l0.74,0.63l-0.63,0.74l0.61,0.54l1.14,0.19l0.28,-0.16l-0.05,-0.33l0,0l2.63,0.08l0.69,-0.32l0.86,0.24l0.47,-0.21l1.7,1.07l0.77,0.17l0.62,0.71l0.99,-0.95l0.74,-0.25l0.41,0.21l-0.02,2.25l-0.51,-0.03l-0.51,0.86l-1.85,1.42l-0.59,1.04l-0.17,1.23l0,0l-1.31,-0.01l-0.2,-0.52l-0.88,-0.58l-0.19,0.66l-1.79,1.44l1.78,3.06l0.04,0.41l-0.42,0.03l0,0l-2.8,-0.68l-1.55,-1.65l-1.15,-0.77l0.05,-0.36l0.52,-0.1l0.1,-0.42l-0.36,-0.87l-1.02,0.1l-1.38,-0.58l-0.03,-1.26l-1.05,-1.38l0.59,-0.99l0,0l0.22,0.24zm-1.61,-8.98l-0.61,-0.03l-0.39,-1.1l-0.37,0.5l-0.21,-0.74l0.34,-0.5l-0.19,-0.39l1.06,-1.34l1.37,0.5l-0.26,0.85l0.52,0.45l-0.57,0.29l0.78,0.27l-0.17,0.54l-1.09,0.05l-0.21,0.65zm0.24,6.65l0.37,-1l0.78,0.95l-0.61,-0.06l-0.08,0.42l-0.48,0.23l-0.3,-0.3l0.32,-0.24z" id="JP-41" fill-opacity="0" fill="#000000" stroke="#D3D3D3"/>
  <path d="m251.72993,266.75889l0.07,0.85l0.71,0.73l-0.73,2.5l-0.04,1.38l-0.78,1.1l-0.21,0.92l-2.34,1.13l-1.33,-0.66l-1.02,0.01l-0.33,-0.38l-0.47,0.39l0.07,0.26l0.62,0.04l0.08,0.26l-0.77,0.62l0.07,0.52l-1.34,0.55l0,0l-0.15,-0.41l0.26,-0.26l-0.61,-0.6l-0.4,0.15l-0.3,-0.37l-0.31,0.05l-0.13,-0.88l-0.73,0.38l-0.71,-0.47l0.24,-1.07l-0.89,-1.51l-0.29,-1.17l0.34,-0.25l0.31,-1.74l-0.43,-2.11l0.38,-1.44l-0.42,0.01l-1.18,-1.84l0,0l0.45,-0.74l0.37,-0.1l0.06,-0.5l0.65,0l0.35,0.4l0.57,-0.28l1.04,-2.76l0.77,0.77l0.46,-0.1l0.46,-0.88l1.29,-0.12l0.35,-1.07l1.1,0.32l0.14,-0.75l-0.83,-1.76l0.31,-0.67l0.67,-0.13l1.81,0.93l0,0l0.26,1.07l0.66,0.07l-0.12,1.6l0.78,0.29l0.31,-0.5l0.55,0.71l-0.24,0.89l0.63,0.64l-0.09,1l0.53,0.85l-0.55,0.44l-0.04,1.34l-0.32,0.52l-0.02,0.93l-0.32,0.21l0.72,0.69z" id="JP-25" fill-opacity="0" fill="#000000" stroke="#D3D3D3"/>
  <path d="m170.75993,270.55889l0.28,-0.79l1.23,-0.93l0.08,-0.67l0.5,-0.67l2.51,-1.8l1.42,-0.54l0.56,-0.51l0.41,-0.78l0.13,-1.61l-0.96,-0.39l0.1,-0.37l1.12,-0.46l0.5,0.3l0.85,-0.17l0.11,-0.21l-0.62,-0.35l1.44,-0.3l0.24,-0.32l2.13,-0.51l1,0.04l-0.07,-0.65l1.17,0.12l0.41,-0.96l0.93,-0.64l0.91,1.06l1.08,-0.17l0.41,-0.33l2.16,0.32l-1.21,0.3l-0.41,0.51l0.49,0.99l1.14,0.68l0,0l-0.16,2.44l-0.42,0.62l0.27,1.63l-3.1,1.38l0.02,0.29l0.61,0.13l0.23,0.69l-0.89,0.7l-0.17,1.54l0,0l-0.58,-0.22l-1.42,0.42l-0.98,-0.79l-0.79,0.62l-1.15,-0.7l-0.4,0.07l-2.4,3.33l-1.19,0.25l-0.85,1l0.38,0.47l0.69,0.21l0.01,0.87l-1.76,0.14l-1.47,1.06l-1.63,-0.13l-0.25,-0.41l-0.41,0.14l0.07,0.25l-0.51,0.43l-0.52,-0.42l-1.24,0.13l-0.21,0.44l-0.4,-0.48l-0.79,-0.11l-0.31,1.14l-1.45,0.86l-0.3,0.48l0.55,0.34l-0.7,1.03l-0.21,1.78l-0.63,0.68l-0.6,0.18l-0.3,0.64l0.49,0.63l0,0l-0.81,0.45l-0.48,0.71l-0.15,0.31l0.43,0.89l-1.12,1.58l-0.69,-0.63l-0.94,0.7l-1.05,0.1l-0.87,-0.86l-0.17,-0.77l0.55,-1.54l-1.87,0.04l-0.61,-1.65l0.66,-0.64l0.02,-0.82l0.43,-0.16l-0.83,-2.54l0,0l1.15,0.03l1.51,-0.45l1.33,-1.52l1.13,-0.82l0.23,-0.66l0.63,-0.2l1.16,-1.24l0.75,-1.24l2.86,-2.38l1.58,-0.63zm18.1,-27.33l-0.39,-0.5l-0.48,-0.07l0.17,-0.81l-0.3,-0.17l0.08,-0.87l0.87,-0.99l1.08,-0.31l0.79,0.33l1.29,1.46l-0.3,1.5l-0.45,0.19l-0.1,-0.56l-0.14,0.45l-0.58,0.09l0.6,0.14l0.11,0.56l-0.26,0.07l-1.79,0.05l0.14,-0.43l-0.34,-0.13zm-46.02,-33.19l0.32,-0.19l0.21,0.22l-0.22,0.32l0.1,0.97l-0.76,0.88l-1.29,-0.54l-0.34,-0.96l0.61,-0.41l1.37,-0.29zm43.06,34.31l0.27,0.09l-0.09,0.33l-0.93,0.46l0.33,0.5l-0.22,0.63l-0.44,-0.06l-0.37,-0.71l-0.35,-0.03l-0.19,0.23l0.43,1.12l-1.03,-0.64l0.63,-1.24l0.71,-0.05l-0.02,-0.46l0.68,0.17l0.59,-0.34zm1.14,1.38l-1.32,1.26l0.22,-0.83l-0.31,-0.8l0.26,-0.18l0.26,0.3l0.07,-0.5l0.37,-0.08l0.39,0.22l0.06,0.61zm-2.59,1.29l1.35,0.53l-0.14,0.35l-1.18,-0.16l-0.03,-0.72z" id="JP-32" fill-opacity="0" fill="#000000" stroke="#D3D3D3"/>
  <path d="m297.31993,250.08889l0.2,-0.52l-0.52,-1.05l0.1,-0.46l0,0l0.75,-1.01l1.23,-0.02l0.92,-1.01l1.52,-0.4l0.46,-0.78l1.53,-0.07l0.42,-0.76l0.02,-0.93l1.23,-1.97l0.7,0.05l1.69,0.86l0.6,-0.15l0.97,0.29l0.86,-0.21l1.81,1.34l2.54,-0.48l0.52,0.48l0.49,-0.18l0.31,-0.58l0,0l0.84,0.41l0,0l-0.17,0.89l0.86,1.96l0.39,0.1l0.39,-0.35l0,0l0.71,1.4l0.06,1.04l1.67,3.22l-0.22,1.33l-0.35,0.27l0,0l-0.92,0.07l-0.17,-0.42l-0.52,0.14l-0.45,-0.28l-0.41,0.74l-1.78,-0.31l-0.67,0.8l-0.55,-0.29l-0.91,0.37l-0.28,-0.87l-1.59,0.75l-1.25,0.03l-0.53,-0.6l-0.78,-0.15l-0.41,-0.87l-2.1,-0.15l-1.03,-0.56l-1.66,-0.28l-0.7,-0.54l-1.39,0.58l-0.18,0.44l0,0l-1.09,0.29l-0.69,-0.53l-1.16,-0.2l-0.29,-0.64l-1.02,-0.23z" id="JP-11" fill-opacity="0" fill="#000000" stroke="#D3D3D3"/>
  <path d="m304.84993,274.99889l-1.07,2.05l-1.23,1.02l-0.48,1.26l0.29,0.76l-0.45,0.17l-0.48,-0.25l-0.41,0.19l-0.2,0.52l-1.26,0.74l-0.38,-0.14l-1.08,-1.02l0.23,-0.29l-0.14,-0.37l-0.73,-0.33l0.01,-0.81l0.74,-0.73l-0.48,-1.08l0.27,-0.2l-0.2,-1.79l0.67,-0.61l-0.54,-1.53l0.49,-1.23l2.05,0.16l0.27,-0.71l-1.78,-1.59l-2.32,-0.51l-2.74,0.82l-0.9,1.57l0.4,0.5l-0.22,0.6l-3.07,1.66l-0.8,1.34l0.18,1l-0.69,1.23l-1.52,1.15l-0.54,1.37l0.01,0.72l0.75,0.71l-0.09,0.22l-4.47,-1.58l-2.06,-0.07l-1.84,0.45l-2.66,-0.61l-3.56,-0.07l0,0l-0.16,-2.32l0.43,-1.23l2.75,-1.54l1.28,-1.92l0.03,-1.06l1.46,-2l0.47,-0.24l-0.08,-0.47l0.57,-0.58l-0.51,-0.5l0.31,-0.98l0,0l1.07,-0.11l0.46,-0.93l0.51,-0.01l0.21,-0.43l1.28,-0.64l1.21,-1.01l1.65,-0.63l0.14,-0.72l-0.53,-0.67l0,-0.67l0.74,-0.26l-0.42,-1.31l0.41,-0.56l-0.33,-0.26l0.56,-0.65l0.36,0.14l0.58,-1.64l0,0l0.94,3.18l-0.38,1.18l0.23,1.07l-0.46,0.93l0.33,1.3l0.68,0.51l0.76,-0.52l0.76,0.36l0.69,2.69l0.69,0.5l1.24,0.12l0.72,-0.63l-0.4,-2.66l0.43,-0.61l-0.05,-1.71l0.99,-0.91l0.57,1.26l1.03,-0.12l0.45,0.97l2.8,-0.47l0.37,-0.27l0.7,0.07l0.67,-0.39l0,0l1.51,-0.03l0.15,0.24l0.35,1.52l-0.28,0.97l-0.57,0.62l0.24,1.52l0.7,0.54l0.13,0.68l1.52,0.21l0,0l-0.67,0.97l-0.14,1.01l0.63,0.25l-0.13,1.33l1.03,0.83l-0.11,1.53l-0.54,0.47z" id="JP-22" fill-opacity="0" fill="#000000" stroke="#D3D3D3"/>
  <path d="m327.45993,225.02889l-0.09,1.99l0.27,0.99l-0.22,1.3l0.62,1l-0.09,0.32l-0.95,0.21l-0.28,0.38l0.57,1.95l0.02,1.81l-0.92,1.86l-0.21,1.17l-0.67,0.2l-0.28,-0.39l-0.45,0.02l-0.41,0.47l-0.68,-0.24l-0.05,0.52l-0.26,0.13l-1.56,0.08l-0.13,0.45l-1,0.47l-0.12,0.88l-1.13,-0.28l-0.56,1.69l-1.64,0.87l-0.73,0.06l0,0l-0.84,-0.41l0,0l-0.51,-0.79l0.09,-0.28l-0.38,-0.24l-1.11,0.18l-0.71,-0.43l-1.01,0.29l-1.11,-0.97l0.04,-0.58l-1.05,-0.78l0.18,-0.96l1.19,-1.55l-0.33,-0.76l0.4,-1.2l0.82,-0.65l-0.34,-0.68l-1.23,0.07l-1.47,-0.74l0.18,-1.37l0.59,-0.89l-0.28,-1.17l1.02,-1.41l-1.02,-0.44l0.58,-1.54l0,0l0.94,-0.43l0.71,-1.02l1.35,-0.24l0.92,-0.75l0.63,-0.09l0.23,-0.43l0.79,-0.2l0.26,-0.41l2.8,-0.87l0.18,-0.91l1.36,-0.59l2.42,0.28l2.39,1l1.02,0.98l0.23,0.93l0.85,-0.05l-0.16,1.86l0.33,0.33z" id="JP-09" fill="#000000" fill-opacity="0" stroke="#D3D3D3"/>
  <path d="m310.35993,279.40889l-0.68,-0.39l-0.14,-0.41l-0.06,-1.39l0.23,-0.5l1.22,0.43l0.52,0.92l-0.16,1.5l-0.93,-0.16zm-2.11,6.15l-0.33,2.29l-0.49,-0.4l-0.06,-0.52l0.88,-1.37zm-1.42,2.19l0.25,0.27l-0.61,0.2l0.36,-0.47zm12.32,-31.08l-0.82,-0.06l-0.2,-0.93l-0.5,0.44l-0.3,1.56l0.32,0.75l0.25,-0.15l0.44,0.71l-0.87,-0.2l-0.93,0.29l0,0l-0.01,-0.38l-0.48,-0.23l-0.33,-0.67l-2.68,-1.27l-0.76,0.91l-0.49,-0.47l-0.22,0.23l0.79,0.62l-0.19,2.02l-0.3,0.03l-1.35,-1.89l-2.15,-0.7l-0.86,0.16l-0.59,-0.99l-0.61,0.03l-0.46,-0.55l-0.6,-0.13l0,0l-2.1,-1.16l-1.58,-3.24l0,0l0.19,-0.44l1.38,-0.58l0.71,0.54l1.66,0.29l1.03,0.56l2.1,0.15l0.41,0.87l0.78,0.16l0.53,0.6l1.25,-0.04l1.59,-0.75l0.28,0.87l0.92,-0.37l0.55,0.29l0.67,-0.8l1.78,0.32l0.41,-0.75l0.45,0.28l0.52,-0.14l0.17,0.42l0.93,-0.07l0,0l1.08,2.26l0,0l0.35,0.76l-0.56,0.32l0.4,0.38l-0.83,0.57l-1.17,-0.43zm-5.62,37.62l0.27,-0.46l-0.03,-0.53l-0.52,-0.53l-0.93,0.11l-0.4,1l0.18,0.63l0.69,0.09l0.74,-0.31zm4.5,23.31l0.97,0.6l0.15,-0.7l0.39,-0.09l-0.25,-0.91l-0.55,-0.05l-0.88,-0.9l-0.48,0.01l-0.16,0.72l0.28,0.56l0.42,0.13l0.11,0.63zm0,0l0.97,0.6l0.15,-0.7l0.39,-0.09l-0.25,-0.91l-0.55,-0.05l-0.88,-0.9l-0.48,0.01l-0.16,0.72l0.28,0.56l0.42,0.13l0.11,0.63z" id="JP-13" fill-opacity="0" fill="#000000" stroke="#D3D3D3"/>
  <path d="m218.38993,299.89889l-2.09,0.87l-0.89,0.77l-0.18,0.51l-1.25,0.91l-1.19,0.7l-0.92,0.19l-0.64,1.79l-0.89,-0.04l-0.21,0.47l0.26,0.14l-0.3,0.18l0,0l-2.11,-0.22l-0.78,-1.19l-0.1,-0.47l0.47,-0.54l-0.23,-0.8l-1.97,-0.05l-0.1,-2l-0.51,-1.26l-0.7,0.17l-0.25,-0.46l-0.39,0.13l-0.42,0.81l-0.61,0.2l-0.79,-0.32l-0.65,-0.9l-1.81,0.17l-1.34,-0.52l-0.37,-0.54l0,0l0.56,-0.9l0,-1.04l-0.27,-0.49l0.29,-0.68l0,0l0.62,-0.22l0.14,-0.51l1,-0.84l0.58,0.19l0.28,-0.5l0.76,-0.29l1.38,-0.25l0.86,0.97l0.47,0l1.17,-0.91l1.24,-0.14l0.32,-0.34l-0.06,-0.42l0.74,-0.58l1.7,-0.18l1.63,0.26l0.28,-0.3l1.09,0.58l0.42,-0.22l0.16,-0.96l0,0l2.81,-0.79l0,0.94l0.75,0.49l-0.72,2.96l0.09,1.1l0.48,0.53l0.36,-0.56l0.59,1.07l0.63,0.36l-0.52,0.39l0.7,0.19l-0.14,0.46l-1.29,0.94l-0.09,0.33l0.27,0.21l1.98,0.04l0.14,0.21l-0.44,0.2z" id="JP-36" fill-opacity="0" fill="#000000" stroke="#D3D3D3"/>
  <path d="m190.80993,260.73889l1.46,0.29l0.47,-0.16l0.47,-0.86l0.98,-0.5l1.8,-0.38l1.44,0.58l1.8,0.17l3.37,-0.23l0.67,-0.37l1.4,0.17l1.85,-0.2l2.78,-0.74l0.56,-0.77l0.76,-0.05l0.13,-0.39l0.61,-0.13l0,0l0.69,0.52l0.38,0.77l-0.12,1.02l0.49,1.88l0.73,0.34l-0.09,1.08l0.73,0.96l-0.15,0.43l0.26,1.16l-1.64,1.15l-0.58,-0.26l0,0l-0.3,-0.23l-1.39,1.16l-0.69,0.13l-0.54,-0.27l-1.48,0.92l-0.51,-0.63l0.19,-0.71l-0.49,-0.31l0.12,-0.61l-0.22,-0.42l-0.69,-0.59l-0.94,0.17l-0.79,-0.21l-0.19,-0.17l0.15,-0.89l-1.5,0.43l-0.03,0.48l-1.16,0.49l-0.2,0.54l-0.66,0.5l-0.52,-0.91l-1.07,-0.74l-1.27,-0.01l-1.7,-0.63l-0.78,2.43l-0.96,0.25l0.21,0.48l-0.21,0.5l-1.21,0.49l-0.78,-0.33l-0.27,0.38l0.33,1.19l-1.81,0.63l-0.38,-0.22l-0.24,0.84l-0.36,0.25l0,0l-0.42,-0.5l-2.1,0.32l0,-0.26l0,0l0.17,-1.54l0.89,-0.7l-0.23,-0.69l-0.61,-0.13l-0.02,-0.29l3.1,-1.38l-0.27,-1.63l0.42,-0.62l0.16,-2.44z" id="JP-31" fill-opacity="0" fill="#000000" stroke="#D3D3D3"/>
  <path d="m265.53993,228.68889l1.31,0.68l0.98,-0.23l1.94,0.09l1.17,-1.11l0.36,-1.01l-0.03,-1.21l0.37,-0.71l1.34,-0.71l2.78,-0.6l0,0l0.7,0.81l0.82,0.25l0.03,1.2l0.39,0.6l0,0.77l0.59,1.68l0,0l-0.2,4.18l-1.18,0.7l-0.11,0.77l0.21,-0.04l0.12,0.49l-0.61,0.17l-0.39,0.53l0.02,0.75l-0.42,0.81l-0.9,0.86l0,0l-0.94,-0.07l-0.84,-0.82l-0.71,0.34l-1.13,-0.35l-0.28,-0.78l-1.35,0.8l-0.21,-0.04l-0.04,-0.88l-0.59,-0.05l-1.46,0.69l-0.25,-0.44l-0.55,0.02l-2.08,2.02l-0.25,1.15l-1.39,1.22l-0.34,-0.08l0.26,-0.73l-0.34,-0.77l-0.92,-0.51l-0.35,0.36l-0.25,-0.59l-0.77,0.56l-0.29,1.06l-0.58,0.08l0,0l-0.15,-0.89l0.32,-0.42l-0.45,-1.89l0.75,-2.95l-0.46,-0.58l-0.19,-1.13l0.77,-1.23l-0.23,-0.46l0.16,-0.97l0.55,-0.65l0.6,-3.49l1.4,-1.37l0.73,-0.26l1.24,0.1l0,0l-1.33,2.29l1.42,1.56l0.69,0.5l0.54,-0.07z" id="JP-16" fill-opacity="0" fill="#000000" stroke="#D3D3D3"/>
  <path d="m240.04993,307.16889l-0.54,0.38l-0.32,0.69l0.09,0.71l-0.48,0.08l-0.25,-0.35l0.32,-0.75l-0.79,0.11l-1.88,-0.75l-2.35,-0.38l-2.02,-1.21l-0.41,-0.74l0.15,-0.79l-1.27,-0.63l0.98,-0.53l0.25,-0.57l-1.44,-1.22l-2.62,-1.21l-0.68,-1.41l-0.77,-0.38l-1.11,0.32l0.21,-2.33l1.57,-0.64l0.49,-0.63l-0.73,-0.76l-1.12,-0.25l0.61,-0.64l0.3,-0.83l0.87,0.07l0.3,-0.35l-0.13,-0.75l-0.75,-0.2l-0.43,-1.22l-1,-1.08l0.13,-0.48l0.36,-0.14l0,0l0.27,0.09l0.13,0.88l0.43,0.04l1.04,-0.18l1.23,-0.79l1.63,-0.09l2.06,-0.74l1.62,0.14l1.2,-0.8l1.29,-0.18l0,0l0.4,0.68l0.2,1.72l0.89,0.5l0.21,0.66l-0.39,0.6l-0.81,-0.37l-0.55,0.27l0.01,0.71l-0.38,0.57l-1.49,1.45l-0.13,0.54l1.14,0.96l-0.06,0.53l0.58,0.21l0.28,0.51l-0.71,1.83l0.38,0.13l0.21,0.57l1.15,-0.68l0.66,0.01l0.66,0.41l2.01,-0.34l0,0l-0.07,1.92l1.7,1.94l1.29,0.27l0,0l-0.33,0.45l-0.15,1.15l-0.96,0.26l-0.23,0.85l0.72,0.28l-0.07,0.35l-2.08,1.46l-0.52,0.09z" id="JP-30" fill-opacity="0" fill="#000000" stroke="#D3D3D3"/>
  <path d="m154.99993,295.15889l-0.59,-0.41l-0.35,0.88l-0.74,0.35l-0.29,-0.2l0.15,-0.59l-0.44,-0.14l-0.77,1.46l-1.72,1.03l-2.18,-0.78l0.08,-0.79l-2.26,-1.28l-0.69,0.38l-0.32,0.88l-1.84,1.78l-0.19,-0.59l0.46,-0.87l-0.03,-1.68l-1.06,-1.52l0.12,-0.61l0.75,-0.13l0.55,-1.11l-0.24,-1.21l-1.07,-1.17l0.3,-0.16l0.38,-1.37l2.64,-0.41l-0.3,-0.48l-1.22,-0.38l0.28,-0.82l0.92,0.74l1.08,-0.34l0.52,0.15l1.09,1.11l2.96,-0.26l0.62,-0.83l1.02,0.03l1.44,-1.68l-0.27,-0.66l0.35,-0.56l0.7,0.14l0.7,-0.71l0.34,-0.42l0.03,-0.86l0.46,-0.11l0.38,-0.88l0.25,-0.23l0.97,0.29l0.47,-0.49l0,0l0.83,2.54l-0.43,0.16l-0.02,0.82l-0.66,0.64l0.61,1.65l1.87,-0.04l-0.55,1.54l0.17,0.77l0.87,0.86l1.05,-0.1l0.94,-0.7l0.69,0.63l1.12,-1.58l-0.43,-0.89l0.15,-0.31l0.48,-0.71l0.81,-0.45l0,0l0.3,0.68l-0.17,0.81l0.24,1.36l0.92,0.78l-0.08,0.63l0.5,1.46l1.28,0.31l0.33,-0.19l0,0l0.24,0.49l-0.29,0.52l0.37,0.47l-0.98,0.91l0.24,2.96l-0.57,0.96l-1.09,0.12l0.01,1.62l0.58,0.68l-0.33,0.63l-0.49,-1.07l-1.43,-0.73l-0.37,0.17l-3.61,-2.76l-0.47,0.6l-0.03,0.55l-0.91,-0.2l1.12,-1.18l-1.25,-0.71l-0.52,-0.08l-1.82,0.55l-2.1,0.96l-0.56,-0.62zm15.14,3.62l-0.9,-0.14l-0.52,0.46l-0.58,-0.87l-0.06,-0.79l1.18,-0.95l1.36,1.13l0.98,0.06l1.26,-0.85l1.1,0.06l-1.26,0.96l-0.71,-0.01l-0.19,0.31l0.19,0.83l-0.87,0.1l-0.1,-0.82l-0.44,-0.1l-0.54,0.09l0.1,0.53z" id="JP-35" fill-opacity="0" fill="#000000" stroke="#D3D3D3"/>
  <path d="m305.23993,255.79889l-0.02,2.61l-0.34,0.7l-0.49,0.52l-0.71,0.1l-0.46,0.65l-1.79,0.83l-0.4,1.13l0,0l-0.67,0.39l-0.7,-0.07l-0.37,0.27l-2.8,0.47l-0.45,-0.97l-1.03,0.12l-0.57,-1.26l-0.99,0.91l0.05,1.71l-0.43,0.61l0.4,2.66l-0.72,0.63l-1.24,-0.12l-0.69,-0.5l-0.69,-2.69l-0.76,-0.36l-0.76,0.52l-0.68,-0.51l-0.33,-1.3l0.46,-0.93l-0.23,-1.07l0.38,-1.18l-0.94,-3.18l0,0l-0.73,-1.77l1,-1.1l-0.88,-0.86l0.97,-1.97l0.2,-0.12l0.72,0.62l1.77,-2.71l1.43,0.58l-0.01,0.67l0.48,0.53l0.48,-0.09l0.22,-0.41l1.76,0.03l0.54,1.14l0.97,-0.01l0.73,-0.94l0.4,0.01l0,0l1.02,0.23l0.29,0.64l1.16,0.2l0.69,0.53l1.09,-0.29l0,0l1.57,3.24l2.1,1.16z" id="JP-19" fill-opacity="0" fill="#000000" stroke="#D3D3D3"/>
  <path d="m327.89993,199.31889l-0.3,1.71l0.04,2.01l0.55,0.41l-1.33,1.61l-1.3,-0.26l-0.74,0.56l-1.47,-1.12l-1.23,0.46l-0.97,-1.68l-0.33,0.35l-0.63,0.07l-0.61,-0.39l-0.94,0.58l-0.63,-0.68l-0.79,0.18l0,0l-0.45,-0.77l-0.45,0.13l-0.66,-0.32l-0.66,-1.16l0.59,-3.17l0.69,-0.51l-0.35,-0.76l0.34,-0.82l-0.16,-1.31l0.52,-0.82l1.58,0.22l1.37,-0.86l0.79,-1.59l-1.15,-1.23l-1.84,-0.48l-0.8,-1.13l0.4,-1.99l-0.24,-0.29l-1.48,-0.32l-1.81,-0.96l0,0l1.17,-3.08l1.74,-1.51l1.14,-1.5l1.13,-4.08l0.61,-1.04l0.7,-2.64l-0.18,-0.58l0,0l2.51,0.41l0.37,-0.46l0.98,-0.24l0.2,1.17l0.71,0.18l0.79,0.7l3.08,0.94l1.08,-0.27l0.35,0.77l1.06,0.08l0.58,1.8l1.52,0.53l0.24,0.45l0,0l-0.23,0.35l1.06,1.02l0.19,1.06l0.83,0.45l-0.68,1.1l0.22,0.97l-0.43,1.15l-0.4,0.1l-0.66,-0.35l-0.1,0.23l0.61,1.37l0.03,0.54l-0.38,0.65l0.27,0.91l0.6,0.39l0.2,0.7l-0.61,1.6l-1.09,1.14l0.16,0.6l-1.05,1.32l-0.16,1.02l0.23,1.23l-1.11,1.58l-0.19,1.02l-0.99,0.55l-1.72,0.01l0.07,1.99z" id="JP-06" fill-opacity="0" fill="#000000" stroke="#D3D3D3"/>
  <ellipse stroke="#000000" stroke-opacity="0" ry="1.2" rx="1.2" id="nagoya-castle" cy="268.629279" cx="261.23841" stroke-linecap="null" stroke-linejoin="null" stroke-dasharray="null" stroke-width="null" fill="#5f00bf"/>
  <ellipse stroke-opacity="0" ry="1.2" rx="1.2" cy="278.270797" cx="234.35796" stroke-linecap="null" stroke-linejoin="null" stroke-dasharray="null" stroke-width="null" fill="#5f00bf" id="osaka-castle" stroke="#000000"/>
  <ellipse id="kumamoto-castle" stroke-opacity="0" ry="1.2" rx="1.2" cy="324.479037" cx="139.514169" stroke-linecap="null" stroke-linejoin="null" stroke-dasharray="null" stroke-width="null" fill="#5f00bf" stroke="#000000"/>
  <ellipse stroke="#000000" id="hakodate-night" stroke-opacity="0" ry="1.2" rx="1.2" cy="101.920477" cx="337.292933" stroke-linecap="null" stroke-linejoin="null" stroke-dasharray="null" stroke-width="null" fill="#5f00bf"/>
  <ellipse id="maya-night" stroke="#000000" stroke-opacity="0" ry="1.2" rx="1.2" cy="277.183825" cx="227.044434" stroke-linecap="null" stroke-linejoin="null" stroke-dasharray="null" stroke-width="null" fill="#5f00bf"/>
  <ellipse stroke="#000000" id="inasa-night" stroke-opacity="0" ry="1.2" rx="1.2" cy="324.502023" cx="122.236294" stroke-linecap="null" stroke-linejoin="null" stroke-dasharray="null" stroke-width="null" fill="#5f00bf"/>
  <ellipse stroke-opacity="0" ry="1.2" rx="1.2" cy="235.893203" cx="255.548798" stroke-linecap="null" stroke-linejoin="null" stroke-dasharray="null" stroke-width="null" fill="#007f00" id="kenroku-en" stroke="#000000"/>
  <ellipse stroke="#000000" stroke-opacity="0" ry="1.2" rx="1.2" cy="280.884943" cx="202.169775" stroke-linecap="null" stroke-linejoin="null" stroke-dasharray="null" stroke-width="null" fill="#007f00" id="koraku-en"/>
  <ellipse stroke-opacity="0" ry="1.2" rx="1.2" cy="239.678333" cx="330.930109" stroke-linecap="null" stroke-linejoin="null" stroke-dasharray="null" stroke-width="null" fill="#007f00" stroke="#000000" id="kairaku-en"/>
  <ellipse stroke-opacity="0" ry="1.2" rx="1.2" cy="189.521975" cx="342.423217" stroke-linecap="null" stroke-linejoin="null" stroke-dasharray="null" stroke-width="null" fill="#ff7f00" stroke="#000000" id="matsushima-view"/>
  <ellipse stroke-opacity="0" ry="1.2" rx="1.2" cy="258.688657" cx="228.089887" stroke-linecap="null" stroke-linejoin="null" stroke-dasharray="null" stroke-width="null" fill="#ff7f00" stroke="#000000" id="Amanohashidate-view"/>
  <ellipse stroke-opacity="0" ry="1.2" rx="1.2" cy="289.491711" cx="170.802046" stroke-linecap="null" stroke-linejoin="null" stroke-dasharray="null" stroke-width="null" fill="#ff7f00" stroke="#000000" id="Itsukushima-view"/>
  <ellipse stroke-opacity="0" ry="1.2" rx="1.2" cy="242.112871" cx="261.514151" stroke-linecap="null" stroke-linejoin="null" stroke-dasharray="null" stroke-width="null" fill="#bf00bf" stroke="#000000" id="shirakawa-village"/>
  <ellipse stroke-opacity="0" ry="1.2" rx="1.2" cy="264.612891" cx="235.680852" stroke-linecap="null" stroke-linejoin="null" stroke-dasharray="null" stroke-width="null" fill="#bf00bf" stroke="#000000" id="miyama-village"/>
  <ellipse stroke-opacity="0" ry="1.2" rx="1.2" cy="213.203792" cx="320.059636" stroke-linecap="null" stroke-linejoin="null" stroke-dasharray="null" stroke-width="null" fill="#bf00bf" stroke="#000000" id="ouchijuku-village"/>
  <ellipse stroke-opacity="0" ry="1.2" rx="1.2" cy="253.037126" cx="267.226303" stroke-linecap="null" stroke-linejoin="null" stroke-dasharray="null" stroke-width="null" fill="#005fbf" stroke="#000000" id="gero-spring"/>
  <ellipse stroke-opacity="0" ry="1.2" rx="1.2" cy="274.961359" cx="228.392932" stroke-linecap="null" stroke-linejoin="null" stroke-dasharray="null" stroke-width="null" fill="#005fbf" stroke="#000000" id="arima-spring"/>
  <ellipse stroke-opacity="0" ry="1.2" rx="1.2" cy="232.628026" cx="295.271717" stroke-linecap="null" stroke-linejoin="null" stroke-dasharray="null" stroke-width="null" fill="#005fbf" stroke="#000000" id="kasatsu-spring"/>
  <ellipse stroke="#000000" stroke-opacity="0" ry="1.2" rx="1.2" cy="284.431072" cx="257.271729" stroke-linecap="null" stroke-linejoin="null" stroke-dasharray="null" stroke-width="null" fill="#ff0000" id="ise-jingu"/>
  <ellipse stroke="#000000" stroke-opacity="0" ry="1.2" rx="1.2" cy="255.976577" cx="316.438391" stroke-linecap="null" stroke-linejoin="null" stroke-dasharray="null" stroke-width="null" fill="#ff0000" id="meiji-jingu"/>
  <ellipse stroke="#000000" stroke-opacity="0" ry="1.2" rx="1.2" cy="269.976578" cx="238.695958" stroke-linecap="null" stroke-linejoin="null" stroke-dasharray="null" stroke-width="null" fill="#ff0000" id="heian-jingu"/>
  <ellipse stroke="#000000" stroke-opacity="0" ry="1.2" rx="1.2" cy="270.067463" cx="260.695971" stroke-linecap="null" stroke-linejoin="null" stroke-dasharray="null" stroke-width="null" fill="#ff0000" id="atsuta-jingu"/>
  <ellipse stroke="#000000" stroke-opacity="0" ry="1.2" rx="1.2" cy="254.825046" cx="317.665659" stroke-linecap="null" stroke-linejoin="null" stroke-dasharray="null" stroke-width="null" fill="#ffaaaa" id="kanda-matsuri"/>
  <ellipse stroke="#000000" stroke-opacity="0" ry="1.2" rx="1.2" cy="271.537121" cx="238.165647" stroke-linecap="null" stroke-linejoin="null" stroke-dasharray="null" stroke-width="null" fill="#ffaaaa" id="gion-matsuri"/>
  <ellipse stroke="#000000" stroke-opacity="0" ry="1.2" rx="1.2" cy="280.037135" cx="234.165667" stroke-linecap="null" stroke-linejoin="null" stroke-dasharray="null" stroke-width="null" fill="#ffaaaa" id="tenjin-matsuri"/>
  <ellipse stroke-opacity="0" ry="1.2" rx="1.2" cy="209.491702" cx="298.711125" stroke-linecap="null" stroke-linejoin="null" stroke-dasharray="null" stroke-width="null" fill="#ffff00" id="nagao-hanabi" stroke="#000000"/>
  <ellipse stroke-opacity="0" ry="1.2" rx="1.2" cy="156.825009" cx="326.423227" stroke-linecap="null" stroke-linejoin="null" stroke-dasharray="null" stroke-width="null" fill="#ffff00" stroke="#000000" id="oomagari-hanabi"/>
  <ellipse stroke-opacity="0" ry="1.2" rx="1.2" cy="244.840194" cx="326.423231" stroke-linecap="null" stroke-linejoin="null" stroke-dasharray="null" stroke-width="null" fill="#ffff00" stroke="#000000" id="tsuchiura-hanabi"/>
  <ellipse stroke="#000000" stroke-opacity="0" ry="1.2" rx="1.2" cy="269.597736" cx="237.2566" stroke-linecap="null" stroke-linejoin="null" stroke-dasharray="null" stroke-width="null" fill="#56ff56" id="kitano-ten"/>
  <ellipse stroke="#000000" stroke-opacity="0" ry="1.2" rx="1.2" cy="305.643231" cx="135.423253" stroke-linecap="null" stroke-linejoin="null" stroke-dasharray="null" stroke-width="null" fill="#56ff56" id="daizaifu-ten"/>
  <ellipse stroke="#000000" stroke-opacity="0" ry="1.2" rx="1.2" cy="290.734134" cx="228.014157" stroke-linecap="null" stroke-linejoin="null" stroke-dasharray="null" stroke-width="null" fill="#56ff56" id="wakaura-ten"/>
  <ellipse stroke="#000000" stroke-opacity="0" ry="1.2" rx="1.2" cy="261.067478" cx="314.317189" stroke-linecap="null" stroke-linejoin="null" stroke-dasharray="null" stroke-width="null" fill="#d4aaff" id="yokohama-ch"/>
  <ellipse stroke="#000000" stroke-opacity="0" ry="1.2" rx="1.2" cy="278.82505" cx="226.105087" stroke-linecap="null" stroke-linejoin="null" stroke-dasharray="null" stroke-width="null" fill="#d4aaff" id="nankin-ch"/>
  <ellipse stroke="#000000" stroke-opacity="0" ry="1.2" rx="1.2" cy="326.203798" cx="122.438399" stroke-linecap="null" stroke-linejoin="null" stroke-dasharray="null" stroke-width="null" fill="#d4aaff" id="shinchi-ch"/>
  <ellipse stroke="#000000" stroke-opacity="0" ry="1.2" rx="1.2" cy="253.582614" cx="318.408076" stroke-linecap="null" stroke-linejoin="null" stroke-dasharray="null" stroke-width="null" fill="#ffd4aa" id="yoshihara-fu"/>
  <ellipse stroke="#000000" stroke-opacity="0" ry="1.2" rx="1.2" cy="304.673505" cx="134.150507" stroke-linecap="null" stroke-linejoin="null" stroke-dasharray="null" stroke-width="null" fill="#ffd4aa" id="nakasu-fu"/>
  <ellipse stroke="#000000" stroke-opacity="0" ry="1.2" rx="1.2" cy="67.128055" cx="347.453525" stroke-linecap="null" stroke-linejoin="null" stroke-dasharray="null" stroke-width="null" fill="#ffd4aa" id="susukino-fu"/>
  <ellipse stroke-opacity="0" ry="1.2" rx="1.2" cy="273.643258" cx="240.120208" stroke-linecap="null" stroke-linejoin="null" stroke-dasharray="null" stroke-width="null" fill="#5fbf00" stroke="#000000" id="uji-tea"/>
  <ellipse stroke-opacity="0" ry="1.2" rx="1.2" cy="274.900789" cx="286.711104" stroke-linecap="null" stroke-linejoin="null" stroke-dasharray="null" stroke-width="null" fill="#5fbf00" stroke="#000000" id="shitsuoka-tea"/>
  <ellipse stroke-opacity="0" ry="1.2" rx="1.2" cy="250.734147" cx="310.680816" stroke-linecap="null" stroke-linejoin="null" stroke-dasharray="null" stroke-width="null" fill="#5fbf00" stroke="#000000" id="sayama-tea"/>
  <ellipse stroke="#000000" stroke-opacity="0" ry="1.2" rx="1.2" cy="282.20377" cx="253.135371" stroke-linecap="null" stroke-linejoin="null" stroke-dasharray="null" stroke-width="null" fill="#bf005f" id="matsusaka-cow"/>
  <ellipse stroke="#000000" stroke-opacity="0" ry="1.2" rx="1.2" cy="278.582619" cx="227.347493" stroke-linecap="null" stroke-linejoin="null" stroke-dasharray="null" stroke-width="null" fill="#bf005f" id="kobe-cow"/>
  <ellipse stroke="#000000" stroke-opacity="0" ry="1.2" rx="1.2" cy="270.734153" cx="242.089934" stroke-linecap="null" stroke-linejoin="null" stroke-dasharray="null" stroke-width="null" fill="#bf005f" id="oumi-cow"/>
  <ellipse stroke="#000000" stroke-opacity="0" ry="1.2" rx="1.2" cy="304.537106" cx="135.089923" stroke-linecap="null" stroke-linejoin="null" stroke-dasharray="null" stroke-width="null" fill="#aaffff" id="hakata-ramen"/>
  <ellipse stroke="#000000" stroke-opacity="0" ry="1.2" rx="1.2" cy="67.991711" cx="349.302004" stroke-linecap="null" stroke-linejoin="null" stroke-dasharray="null" stroke-width="null" fill="#aaffff" id="sapparo-ramen"/>
  <ellipse stroke="#000000" stroke-opacity="0" ry="1.2" rx="1.2" cy="205.173509" cx="319.105069" stroke-linecap="null" stroke-linejoin="null" stroke-dasharray="null" stroke-width="null" fill="#aaffff" id="kitakata-ramen"/>
 </g>
</svg>
